SplineFontDB: 3.0
FontName: Karla-Regular
FullName: Karla
FamilyName: Karla
Weight: Book
Copyright: Copyright (c) 2011, Jonathan Pinhorn (pinhorn.typedesign@gmail.com), with Reserved Font Names "Karla" and "Karla Tamil".
Version: 1.000
ItalicAngle: 0
UnderlinePosition: -50
UnderlineWidth: 50
Ascent: 800
Descent: 200
sfntRevision: 0x00010000
LayerCount: 2
Layer: 0 1 "Back"  1
Layer: 1 1 "Fore"  0
NeedsXUIDChange: 1
XUID: [1021 992 1258595862 10802736]
FSType: 8
OS2Version: 3
OS2_WeightWidthSlopeOnly: 0
OS2_UseTypoMetrics: 1
CreationTime: 1307536560
ModificationTime: 1341396547
PfmFamily: 81
TTFWeight: 400
TTFWidth: 5
LineGap: 0
VLineGap: 0
Panose: 0 0 0 0 0 0 0 0 0 0
OS2TypoAscent: 117
OS2TypoAOffset: 1
OS2TypoDescent: -52
OS2TypoDOffset: 1
OS2TypoLinegap: 0
OS2WinAscent: 38
OS2WinAOffset: 1
OS2WinDescent: 6
OS2WinDOffset: 1
HheadAscent: 38
HheadAOffset: 1
HheadDescent: -6
HheadDOffset: 1
OS2SubXSize: 700
OS2SubYSize: 650
OS2SubXOff: 0
OS2SubYOff: 140
OS2SupXSize: 700
OS2SupYSize: 650
OS2SupXOff: 0
OS2SupYOff: 477
OS2StrikeYSize: 50
OS2StrikeYPos: 250
OS2Vendor: 'pyrs'
OS2CodePages: 00000001.00000000
OS2UnicodeRanges: 80000027.08000042.14000000.00000000
Lookup: 1 0 0 "'onum' Oldstyle Figures in Latin lookup 0"  {"'onum' Oldstyle Figures in Latin lookup 0 subtable" ("oldstyle" ) } ['onum' ('latn' <'dflt' > ) ]
Lookup: 258 0 0 "'kern' Horizontal Kerning in Latin lookup 0"  {"'kern' Horizontal Kerning in Latin lookup 0 subtable"  } ['kern' ('latn' <'dflt' > ) ]
MarkAttachClasses: 1
DEI: 91125
TtTable: prep
PUSHW_1
 511
SCANCTRL
PUSHB_1
 4
SCANTYPE
EndTTInstrs
ShortTable: maxp 16
  1
  0
  167
  63
  5
  0
  0
  2
  0
  1
  1
  0
  64
  0
  0
  0
EndShort
LangName: 1033 "" "" "" "FontForge 2.0 : Karla Regular : 13-10-2011" "" "Version 1.000" "" "" "" "Jonathan Pinhorn" "" "" "jonpinhorn.com" "This Font Software is licensed under the SIL Open Font License, Version 1.1." "http://scripts.sil.org/OFL" 
GaspTable: 1 65535 15
Encoding: Custom
UnicodeInterp: none

StartChar: exclam
Encoding: 1 33 4
Width: 278
GlyphClass: 2
Flags: HW
LayerCount: 2
Fore
SplineSet
99 627 m 1,0,-1
 182 627 l 1,1,-1
 173 176 l 1,2,-1
 109 176 l 1,3,-1
 99 627 l 1,0,-1
98.5 7.5 m 128,-1,5
 82 24 82 24 82 47.5 c 128,-1,6
 82 71 82 71 98.5 87.5 c 128,-1,7
 115 104 115 104 140.5 104 c 128,-1,8
 166 104 166 104 183.5 87.5 c 128,-1,9
 201 71 201 71 201 47.5 c 128,-1,10
 201 24 201 24 183.5 7.5 c 128,-1,11
 166 -9 166 -9 140.5 -9 c 128,-1,4
 115 -9 115 -9 98.5 7.5 c 128,-1,5
EndSplineSet
EndChar

StartChar: quotedbl
Encoding: 2 34 5
Width: 306
GlyphClass: 2
Flags: HW
LayerCount: 2
Fore
SplineSet
110 681 m 1,0,-1
 99 461 l 1,1,-1
 39 461 l 1,2,-1
 28 681 l 1,3,-1
 110 681 l 1,0,-1
278 681 m 1,4,-1
 267 461 l 1,5,-1
 207 461 l 1,6,-1
 196 681 l 1,7,-1
 278 681 l 1,4,-1
EndSplineSet
EndChar

StartChar: numbersign
Encoding: 3 35 6
Width: 627
GlyphClass: 2
Flags: HW
LayerCount: 2
Fore
SplineSet
380 170 m 1,0,-1
 226 170 l 1,1,-1
 212 31 l 1,2,-1
 138 31 l 1,3,-1
 152 170 l 1,4,-1
 53 170 l 1,5,-1
 58 224 l 1,6,-1
 158 224 l 1,7,-1
 177 402 l 1,8,-1
 76 402 l 1,9,-1
 82 455 l 1,10,-1
 182 455 l 1,11,-1
 197 593 l 1,12,-1
 271 593 l 1,13,-1
 256 455 l 1,14,-1
 410 455 l 1,15,-1
 425 593 l 1,16,-1
 498 593 l 1,17,-1
 483 455 l 1,18,-1
 586 455 l 1,19,-1
 580 402 l 1,20,-1
 478 402 l 1,21,-1
 459 224 l 1,22,-1
 562 224 l 1,23,-1
 556 170 l 1,24,-1
 453 170 l 1,25,-1
 439 31 l 1,26,-1
 365 31 l 1,27,-1
 380 170 l 1,0,-1
232 224 m 1,28,-1
 385 224 l 1,29,-1
 404 402 l 1,30,-1
 251 402 l 1,31,-1
 232 224 l 1,28,-1
EndSplineSet
EndChar

StartChar: dollar
Encoding: 4 36 7
Width: 632
GlyphClass: 2
Flags: HW
LayerCount: 2
Fore
SplineSet
417 330 m 2,0,1
 486 307 486 307 524.5 268.5 c 128,-1,2
 563 230 563 230 563 163.5 c 128,-1,3
 563 97 563 97 506 46.5 c 128,-1,4
 449 -4 449 -4 347 -10 c 1,5,-1
 347 -91 l 1,6,-1
 285 -91 l 1,7,-1
 285 -9 l 1,8,9
 190 -1 190 -1 129.5 50.5 c 128,-1,10
 69 102 69 102 69 189 c 1,11,-1
 146 189 l 1,12,13
 146 76 146 76 285 63 c 1,14,-1
 285 298 l 1,15,-1
 253 310 l 1,16,17
 170 336 170 336 127.5 372 c 128,-1,18
 85 408 85 408 85 475 c 128,-1,19
 85 542 85 542 135.5 586.5 c 128,-1,20
 186 631 186 631 285 638 c 1,21,-1
 285 713 l 1,22,-1
 347 713 l 1,23,-1
 347 637 l 1,24,25
 434 630 434 630 481 587 c 128,-1,26
 528 544 528 544 539 476 c 1,27,-1
 461 476 l 1,28,29
 444 556 444 556 347 568 c 1,30,-1
 347 353 l 1,31,-1
 417 330 l 2,0,1
475 167 m 0,32,33
 475 241 475 241 383 270 c 1,34,-1
 347 282 l 1,35,-1
 347 62 l 1,36,37
 410 67 410 67 442.5 98 c 128,-1,38
 475 129 475 129 475 167 c 0,32,33
199 536 m 128,-1,40
 170 509 170 509 170 472.5 c 128,-1,41
 170 436 170 436 190 415.5 c 128,-1,42
 210 395 210 395 255 381 c 1,43,-1
 285 370 l 1,44,-1
 285 569 l 1,45,39
 228 563 228 563 199 536 c 128,-1,40
EndSplineSet
EndChar

StartChar: percent
Encoding: 5 37 8
Width: 726
GlyphClass: 2
Flags: HW
LayerCount: 2
Fore
SplineSet
279 602 m 128,-1,1
 317 564 317 564 317 496 c 256,2,3
 317 428 317 428 279.5 390.5 c 128,-1,4
 242 353 242 353 188 353 c 128,-1,5
 134 353 134 353 97.5 391 c 128,-1,6
 61 429 61 429 61 496 c 256,7,8
 61 563 61 563 98 601.5 c 128,-1,9
 135 640 135 640 188 640 c 128,-1,0
 241 640 241 640 279 602 c 128,-1,1
235 565 m 128,-1,11
 217 587 217 587 188 587 c 128,-1,12
 159 587 159 587 141 565 c 128,-1,13
 123 543 123 543 123 496 c 256,14,15
 123 449 123 449 141 428 c 128,-1,16
 159 407 159 407 188 407 c 128,-1,17
 217 407 217 407 235 428 c 128,-1,18
 253 449 253 449 253 496 c 256,19,10
 253 543 253 543 235 565 c 128,-1,11
534 629 m 1,20,-1
 616 629 l 1,21,-1
 193 0 l 1,22,-1
 112 0 l 1,23,-1
 534 629 l 1,20,-1
538 276 m 256,24,25
 592 276 592 276 629.5 238.5 c 128,-1,26
 667 201 667 201 667 132.5 c 128,-1,27
 667 64 667 64 629.5 26.5 c 128,-1,28
 592 -11 592 -11 538 -11 c 256,29,30
 484 -11 484 -11 447.5 27 c 128,-1,31
 411 65 411 65 411 132.5 c 128,-1,32
 411 200 411 200 447.5 238 c 128,-1,33
 484 276 484 276 538 276 c 256,24,25
538 223 m 256,34,35
 509 223 509 223 491 201 c 128,-1,36
 473 179 473 179 473 132 c 256,37,38
 473 85 473 85 491 64 c 128,-1,39
 509 43 509 43 538 43 c 256,40,41
 567 43 567 43 585 64 c 128,-1,42
 603 85 603 85 603 132 c 256,43,44
 603 179 603 179 585 201 c 128,-1,45
 567 223 567 223 538 223 c 256,34,35
EndSplineSet
EndChar

StartChar: ampersand
Encoding: 6 38 9
Width: 916
GlyphClass: 2
Flags: HW
LayerCount: 2
Fore
SplineSet
725 350 m 1,0,1
 680 213 680 213 610 128 c 1,2,-1
 653 91 l 2,3,4
 673 74 673 74 688.5 66 c 128,-1,5
 704 58 704 58 728.5 58 c 128,-1,6
 753 58 753 58 772.5 76.5 c 128,-1,7
 792 95 792 95 795 140 c 1,8,-1
 869 140 l 1,9,10
 865 68 865 68 831.5 28.5 c 128,-1,11
 798 -11 798 -11 734 -11 c 0,12,13
 695 -11 695 -11 662 5 c 128,-1,14
 629 21 629 21 590 56 c 1,15,-1
 564 78 l 1,16,17
 464 -11 464 -11 336 -11 c 0,18,19
 231 -11 231 -11 160 41.5 c 128,-1,20
 89 94 89 94 89 168 c 128,-1,21
 89 242 89 242 136.5 279.5 c 128,-1,22
 184 317 184 317 276 332 c 1,23,-1
 262 345 l 1,24,25
 185 412 185 412 185 492 c 0,26,27
 185 555 185 555 237.5 597 c 128,-1,28
 290 639 290 639 376.5 639 c 128,-1,29
 463 639 463 639 514.5 597 c 128,-1,30
 566 555 566 555 566 495.5 c 128,-1,31
 566 436 566 436 527 393 c 128,-1,32
 488 350 488 350 400 312 c 1,33,-1
 558 173 l 1,34,35
 626 255 626 255 670 380 c 1,36,-1
 725 350 l 1,0,1
211.5 251 m 128,-1,38
 175 224 175 224 175 176 c 128,-1,39
 175 128 175 128 216.5 93.5 c 128,-1,40
 258 59 258 59 344 59 c 128,-1,41
 430 59 430 59 511 125 c 1,42,-1
 325 288 l 1,43,37
 248 278 248 278 211.5 251 c 128,-1,38
480 488 m 0,44,45
 480 524 480 524 452.5 548 c 128,-1,46
 425 572 425 572 375.5 572 c 128,-1,47
 326 572 326 572 298.5 544.5 c 128,-1,48
 271 517 271 517 271 485 c 128,-1,49
 271 453 271 453 284 428 c 128,-1,50
 297 403 297 403 327 377 c 1,51,-1
 354 352 l 1,52,53
 458 400 458 400 474 452 c 0,54,55
 480 469 480 469 480 488 c 0,44,45
EndSplineSet
EndChar

StartChar: quotesingle
Encoding: 7 39 10
Width: 136
GlyphClass: 2
Flags: HW
LayerCount: 2
Fore
SplineSet
109 677 m 1,0,-1
 98 457 l 1,1,-1
 38 457 l 1,2,-1
 27 677 l 1,3,-1
 109 677 l 1,0,-1
EndSplineSet
EndChar

StartChar: parenleft
Encoding: 8 40 11
Width: 356
GlyphClass: 2
Flags: HW
LayerCount: 2
Fore
SplineSet
155 307 m 128,-1,1
 155 102 155 102 328 -73 c 1,2,-1
 271 -113 l 1,3,4
 173 -24 173 -24 123 84 c 128,-1,5
 73 192 73 192 73 307.5 c 128,-1,6
 73 423 73 423 123 530.5 c 128,-1,7
 173 638 173 638 271 728 c 1,8,-1
 328 687 l 1,9,0
 155 512 155 512 155 307 c 128,-1,1
EndSplineSet
EndChar

StartChar: parenright
Encoding: 9 41 12
Width: 356
GlyphClass: 2
Flags: HW
LayerCount: 2
Fore
SplineSet
201 307 m 128,-1,1
 201 512 201 512 28 687 c 1,2,-1
 85 728 l 1,3,4
 183 638 183 638 233 530.5 c 128,-1,5
 283 423 283 423 283 307.5 c 128,-1,6
 283 192 283 192 233 84 c 128,-1,7
 183 -24 183 -24 85 -113 c 1,8,-1
 28 -73 l 1,9,0
 201 102 201 102 201 307 c 128,-1,1
EndSplineSet
EndChar

StartChar: asterisk
Encoding: 10 42 13
Width: 412
GlyphClass: 2
Flags: HW
LayerCount: 2
Fore
SplineSet
173 516 m 1,0,-1
 56 556 l 1,1,-1
 80 610 l 1,2,-1
 186 556 l 1,3,-1
 176 684 l 1,4,-1
 238 684 l 1,5,-1
 228 556 l 1,6,-1
 334 610 l 1,7,-1
 358 556 l 1,8,-1
 242 516 l 1,9,-1
 332 427 l 1,10,-1
 288 388 l 1,11,-1
 208 492 l 1,12,-1
 128 388 l 1,13,-1
 83 427 l 1,14,-1
 173 516 l 1,0,-1
EndSplineSet
EndChar

StartChar: plus
Encoding: 11 43 14
Width: 527
GlyphClass: 2
Flags: HW
LayerCount: 2
Fore
SplineSet
303 491 m 1,0,-1
 303 279 l 1,1,-1
 509 279 l 1,2,-1
 509 212 l 1,3,-1
 303 212 l 1,4,-1
 303 0 l 1,5,-1
 224 0 l 1,6,-1
 224 212 l 1,7,-1
 18 212 l 1,8,-1
 18 279 l 1,9,-1
 224 279 l 1,10,-1
 224 491 l 1,11,-1
 303 491 l 1,0,-1
EndSplineSet
EndChar

StartChar: comma
Encoding: 12 44 15
Width: 210
GlyphClass: 2
Flags: HW
LayerCount: 2
Fore
SplineSet
67 10 m 128,-1,1
 52 23 52 23 52 45 c 128,-1,2
 52 67 52 67 67.5 82 c 128,-1,3
 83 97 83 97 111.5 97 c 128,-1,4
 140 97 140 97 159 74.5 c 128,-1,5
 178 52 178 52 178 18 c 128,-1,6
 178 -16 178 -16 156 -51.5 c 128,-1,7
 134 -87 134 -87 89 -109 c 1,8,-1
 30 -80 l 1,9,10
 92 -50 92 -50 105 -5 c 1,11,0
 82 -3 82 -3 67 10 c 128,-1,1
EndSplineSet
EndChar

StartChar: hyphen
Encoding: 13 45 16
Width: 349
GlyphClass: 2
Flags: HW
LayerCount: 2
Fore
SplineSet
38 325 m 1,0,-1
 310 325 l 1,1,-1
 310 257 l 1,2,-1
 38 257 l 1,3,-1
 38 325 l 1,0,-1
EndSplineSet
EndChar

StartChar: period
Encoding: 14 46 17
Width: 179
GlyphClass: 2
Flags: HW
LayerCount: 2
Fore
SplineSet
46.5 7.5 m 128,-1,1
 30 24 30 24 30 47.5 c 128,-1,2
 30 71 30 71 46.5 87.5 c 128,-1,3
 63 104 63 104 88.5 104 c 128,-1,4
 114 104 114 104 131 87.5 c 128,-1,5
 148 71 148 71 148 47.5 c 128,-1,6
 148 24 148 24 131 7.5 c 128,-1,7
 114 -9 114 -9 88.5 -9 c 128,-1,0
 63 -9 63 -9 46.5 7.5 c 128,-1,1
EndSplineSet
EndChar

StartChar: slash
Encoding: 15 47 18
Width: 432
GlyphClass: 2
Flags: HW
LayerCount: 2
Fore
SplineSet
308 731 m 1,0,-1
 388 731 l 1,1,-1
 136 -73 l 1,2,-1
 57 -73 l 1,3,-1
 308 731 l 1,0,-1
EndSplineSet
EndChar

StartChar: zero
Encoding: 16 48 19
Width: 594
GlyphClass: 2
Flags: HW
LayerCount: 2
Fore
SplineSet
478 556 m 128,-1,1
 544 472 544 472 544 314.5 c 128,-1,2
 544 157 544 157 478 73 c 128,-1,3
 412 -11 412 -11 298 -11 c 128,-1,4
 184 -11 184 -11 117.5 72 c 128,-1,5
 51 155 51 155 51 314.5 c 128,-1,6
 51 474 51 474 117.5 557 c 128,-1,7
 184 640 184 640 298 640 c 128,-1,0
 412 640 412 640 478 556 c 128,-1,1
420 502.5 m 128,-1,9
 378 568 378 568 297.5 568 c 128,-1,10
 217 568 217 568 175 502.5 c 128,-1,11
 133 437 133 437 133 314.5 c 128,-1,12
 133 192 133 192 175 126.5 c 128,-1,13
 217 61 217 61 297.5 61 c 128,-1,14
 378 61 378 61 420 126.5 c 128,-1,15
 462 192 462 192 462 314.5 c 128,-1,8
 462 437 462 437 420 502.5 c 128,-1,9
EndSplineSet
Substitution2: "'onum' Oldstyle Figures in Latin lookup 0 subtable" .notdef
EndChar

StartChar: one
Encoding: 17 49 20
Width: 331
GlyphClass: 2
Flags: HW
LayerCount: 2
Fore
SplineSet
49 580 m 1,0,1
 116 589 116 589 166 631 c 1,2,-1
 230 631 l 1,3,-1
 230 0 l 1,4,-1
 152 0 l 1,5,-1
 152 537 l 1,6,7
 102 505 102 505 49 502 c 1,8,-1
 49 580 l 1,0,1
EndSplineSet
Substitution2: "'onum' Oldstyle Figures in Latin lookup 0 subtable" .notdef
EndChar

StartChar: two
Encoding: 18 50 21
Width: 580
GlyphClass: 2
Flags: HW
LayerCount: 2
Fore
SplineSet
143 73 m 1,0,-1
 508 73 l 1,1,-1
 508 0 l 1,2,-1
 64 0 l 1,3,-1
 64 93 l 2,4,5
 64 204 64 204 148 256 c 0,6,7
 175 273 175 273 208 286 c 2,8,-1
 332 336 l 2,9,10
 428 374 428 374 428 461 c 0,11,12
 428 509 428 509 395 539.5 c 128,-1,13
 362 570 362 570 302.5 570 c 128,-1,14
 243 570 243 570 205.5 545 c 128,-1,15
 168 520 168 520 162 470 c 1,16,-1
 75 470 l 1,17,18
 80 552 80 552 141 596 c 128,-1,19
 202 640 202 640 297.5 640 c 128,-1,20
 393 640 393 640 453 588 c 128,-1,21
 513 536 513 536 513 459.5 c 128,-1,22
 513 383 513 383 473.5 338 c 128,-1,23
 434 293 434 293 365 266 c 2,24,-1
 238 215 l 2,25,26
 190 195 190 195 166.5 169.5 c 128,-1,27
 143 144 143 144 143 103 c 2,28,-1
 143 73 l 1,0,-1
EndSplineSet
Substitution2: "'onum' Oldstyle Figures in Latin lookup 0 subtable" .notdef
EndChar

StartChar: three
Encoding: 19 51 22
Width: 591
GlyphClass: 2
Flags: HW
LayerCount: 2
Fore
SplineSet
505 468 m 0,0,1
 505 368 505 368 395 329 c 1,2,3
 455 312 455 312 492 273 c 128,-1,4
 529 234 529 234 529 173 c 0,5,6
 529 90 529 90 466 39.5 c 128,-1,7
 403 -11 403 -11 300 -11 c 128,-1,8
 197 -11 197 -11 124.5 42.5 c 128,-1,9
 52 96 52 96 52 193 c 1,10,-1
 134 193 l 1,11,12
 136 129 136 129 181.5 95 c 128,-1,13
 227 61 227 61 297 61 c 128,-1,14
 367 61 367 61 405.5 94.5 c 128,-1,15
 444 128 444 128 444 177.5 c 128,-1,16
 444 227 444 227 407 258.5 c 128,-1,17
 370 290 370 290 287 290 c 2,18,-1
 215 290 l 1,19,-1
 215 353 l 1,20,-1
 264 353 l 2,21,22
 336 353 336 353 378 381.5 c 128,-1,23
 420 410 420 410 420 458 c 128,-1,24
 420 506 420 506 386 537 c 128,-1,25
 352 568 352 568 296 568 c 128,-1,26
 240 568 240 568 202.5 548.5 c 128,-1,27
 165 529 165 529 152 476 c 1,28,-1
 70 476 l 1,29,30
 81 559 81 559 139 599.5 c 128,-1,31
 197 640 197 640 288.5 640 c 128,-1,32
 380 640 380 640 442.5 591.5 c 128,-1,33
 505 543 505 543 505 468 c 0,0,1
EndSplineSet
Substitution2: "'onum' Oldstyle Figures in Latin lookup 0 subtable" .notdef
EndChar

StartChar: four
Encoding: 20 52 23
Width: 559
GlyphClass: 2
Flags: HW
LayerCount: 2
Fore
SplineSet
428 638 m 1,0,-1
 428 220 l 1,1,-1
 537 220 l 1,2,-1
 537 152 l 1,3,-1
 428 152 l 1,4,-1
 428 0 l 1,5,-1
 351 0 l 1,6,-1
 351 152 l 1,7,-1
 26 152 l 1,8,-1
 26 213 l 1,9,-1
 355 638 l 1,10,-1
 428 638 l 1,0,-1
120 213 m 1,11,-1
 353 213 l 1,12,-1
 353 513 l 1,13,-1
 120 213 l 1,11,-1
EndSplineSet
Substitution2: "'onum' Oldstyle Figures in Latin lookup 0 subtable" .notdef
EndChar

StartChar: five
Encoding: 21 53 24
Width: 565
GlyphClass: 2
Flags: HW
LayerCount: 2
Fore
SplineSet
427 204 m 0,0,1
 427 323 427 323 272 323 c 2,2,-1
 103 323 l 1,3,-1
 130 629 l 1,4,-1
 479 629 l 1,5,-1
 479 557 l 1,6,-1
 206 557 l 1,7,-1
 189 376 l 1,8,9
 241 385 241 385 288 385 c 0,10,11
 391 385 391 385 450 339.5 c 128,-1,12
 509 294 509 294 509 202 c 128,-1,13
 509 110 509 110 447 49.5 c 128,-1,14
 385 -11 385 -11 287 -11 c 128,-1,15
 189 -11 189 -11 127 38.5 c 128,-1,16
 65 88 65 88 65 175 c 1,17,-1
 144 175 l 1,18,19
 144 93 144 93 228 68 c 0,20,21
 254 61 254 61 285 61 c 0,22,23
 349 61 349 61 388 101.5 c 128,-1,24
 427 142 427 142 427 204 c 0,0,1
EndSplineSet
Substitution2: "'onum' Oldstyle Figures in Latin lookup 0 subtable" .notdef
EndChar

StartChar: six
Encoding: 22 54 25
Width: 573
GlyphClass: 2
Flags: HW
LayerCount: 2
Fore
SplineSet
425 470 m 1,0,1
 408 568 408 568 318 568 c 128,-1,2
 228 568 228 568 179.5 494 c 128,-1,3
 131 420 131 420 131 292 c 0,4,5
 131 239 131 239 136 204 c 1,6,7
 142 296 142 296 192.5 337.5 c 128,-1,8
 243 379 243 379 322 379 c 128,-1,9
 401 379 401 379 458 323.5 c 128,-1,10
 515 268 515 268 515 181.5 c 128,-1,11
 515 95 515 95 456 41.5 c 128,-1,12
 397 -12 397 -12 301 -12 c 0,13,14
 189 -12 189 -12 120 78 c 128,-1,15
 51 168 51 168 51 314.5 c 128,-1,16
 51 461 51 461 121 550.5 c 128,-1,17
 191 640 191 640 312 640 c 0,18,19
 396 640 396 640 449 593 c 128,-1,20
 502 546 502 546 510 470 c 1,21,-1
 425 470 l 1,0,1
207.5 273.5 m 128,-1,23
 170 238 170 238 170 183 c 128,-1,24
 170 128 170 128 207 94.5 c 128,-1,25
 244 61 244 61 301 61 c 128,-1,26
 358 61 358 61 395.5 94 c 128,-1,27
 433 127 433 127 433 185 c 256,28,29
 433 243 433 243 395.5 276 c 128,-1,30
 358 309 358 309 301.5 309 c 128,-1,22
 245 309 245 309 207.5 273.5 c 128,-1,23
EndSplineSet
Substitution2: "'onum' Oldstyle Figures in Latin lookup 0 subtable" .notdef
EndChar

StartChar: seven
Encoding: 23 55 26
Width: 470
GlyphClass: 2
Flags: HW
LayerCount: 2
Fore
SplineSet
452 629 m 1,0,-1
 452 556 l 1,1,-1
 164 0 l 1,2,-1
 58 0 l 1,3,-1
 360 553 l 1,4,-1
 24 553 l 1,5,-1
 24 629 l 1,6,-1
 452 629 l 1,0,-1
EndSplineSet
Substitution2: "'onum' Oldstyle Figures in Latin lookup 0 subtable" .notdef
EndChar

StartChar: eight
Encoding: 24 56 27
Width: 615
GlyphClass: 2
Flags: HW
LayerCount: 2
Fore
SplineSet
201 318 m 1,0,1
 76 375 76 375 76 473 c 0,2,3
 76 548 76 548 138 594 c 128,-1,4
 200 640 200 640 302.5 640 c 128,-1,5
 405 640 405 640 471 591 c 128,-1,6
 537 542 537 542 537 465 c 0,7,8
 537 413 537 413 502.5 372 c 128,-1,9
 468 331 468 331 401 321 c 1,10,-1
 418 315 l 1,11,12
 487 289 487 289 524 253.5 c 128,-1,13
 561 218 561 218 561 157 c 0,14,15
 561 81 561 81 493.5 35 c 128,-1,16
 426 -11 426 -11 311.5 -11 c 128,-1,17
 197 -11 197 -11 126 40 c 128,-1,18
 55 91 55 91 55 168 c 0,19,20
 55 230 55 230 95.5 269 c 128,-1,21
 136 308 136 308 201 318 c 1,0,1
276 289 m 1,22,23
 213 282 213 282 175 249.5 c 128,-1,24
 137 217 137 217 137 169 c 128,-1,25
 137 121 137 121 185 91 c 128,-1,26
 233 61 233 61 310.5 61 c 128,-1,27
 388 61 388 61 433.5 87 c 128,-1,28
 479 113 479 113 479 150 c 128,-1,29
 479 187 479 187 455 209.5 c 128,-1,30
 431 232 431 232 389 247 c 2,31,-1
 276 289 l 1,22,23
159 463 m 0,32,33
 159 436 159 436 181 416.5 c 128,-1,34
 203 397 203 397 244 381 c 2,35,-1
 317 353 l 1,36,37
 377 355 377 355 416 384.5 c 128,-1,38
 455 414 455 414 455 461.5 c 128,-1,39
 455 509 455 509 414 538.5 c 128,-1,40
 373 568 373 568 308 568 c 128,-1,41
 243 568 243 568 201 539.5 c 128,-1,42
 159 511 159 511 159 463 c 0,32,33
EndSplineSet
Substitution2: "'onum' Oldstyle Figures in Latin lookup 0 subtable" .notdef
EndChar

StartChar: nine
Encoding: 25 57 28
Width: 581
GlyphClass: 2
Flags: HW
LayerCount: 2
Fore
SplineSet
282 640 m 0,0,1
 333 640 333 640 379 618 c 128,-1,2
 425 596 425 596 458 555 c 0,3,4
 530 467 530 467 530 326 c 0,5,6
 530 81 530 81 394 12 c 0,7,8
 347 -11 347 -11 292 -11 c 0,9,10
 189 -11 189 -11 129 45 c 128,-1,11
 69 101 69 101 69 186 c 1,12,-1
 152 186 l 1,13,14
 154 129 154 129 188 95 c 128,-1,15
 222 61 222 61 274 61 c 128,-1,16
 326 61 326 61 358 80 c 0,17,18
 449 137 449 137 449 337 c 0,19,20
 449 378 449 378 444 411 c 1,21,22
 434 330 434 330 385.5 290 c 128,-1,23
 337 250 337 250 258.5 250 c 128,-1,24
 180 250 180 250 123 305.5 c 128,-1,25
 66 361 66 361 66 447 c 0,26,27
 66 534 66 534 125 587 c 128,-1,28
 184 640 184 640 282 640 c 0,0,1
279 567 m 128,-1,30
 222 567 222 567 185 534 c 128,-1,31
 148 501 148 501 148 443 c 256,32,33
 148 385 148 385 185.5 352 c 128,-1,34
 223 319 223 319 279.5 319 c 128,-1,35
 336 319 336 319 373.5 354.5 c 128,-1,36
 411 390 411 390 411 445 c 128,-1,37
 411 500 411 500 373.5 533.5 c 128,-1,29
 336 567 336 567 279 567 c 128,-1,30
EndSplineSet
Substitution2: "'onum' Oldstyle Figures in Latin lookup 0 subtable" .notdef
EndChar

StartChar: colon
Encoding: 26 58 29
Width: 231
GlyphClass: 2
Flags: HW
LayerCount: 2
Fore
SplineSet
72.5 39.5 m 128,-1,1
 56 56 56 56 56 79.5 c 128,-1,2
 56 103 56 103 72.5 119.5 c 128,-1,3
 89 136 89 136 114.5 136 c 128,-1,4
 140 136 140 136 157 119.5 c 128,-1,5
 174 103 174 103 174 79.5 c 128,-1,6
 174 56 174 56 157 39.5 c 128,-1,7
 140 23 140 23 114.5 23 c 128,-1,0
 89 23 89 23 72.5 39.5 c 128,-1,1
72.5 345.5 m 128,-1,9
 56 362 56 362 56 385.5 c 128,-1,10
 56 409 56 409 72.5 425.5 c 128,-1,11
 89 442 89 442 114.5 442 c 128,-1,12
 140 442 140 442 157 425.5 c 128,-1,13
 174 409 174 409 174 385.5 c 128,-1,14
 174 362 174 362 157 345.5 c 128,-1,15
 140 329 140 329 114.5 329 c 128,-1,8
 89 329 89 329 72.5 345.5 c 128,-1,9
EndSplineSet
EndChar

StartChar: semicolon
Encoding: 27 59 30
Width: 262
GlyphClass: 2
Flags: HW
LayerCount: 2
Fore
SplineSet
94 10 m 128,-1,1
 79 23 79 23 79 45 c 128,-1,2
 79 67 79 67 94.5 82 c 128,-1,3
 110 97 110 97 138.5 97 c 128,-1,4
 167 97 167 97 186 74.5 c 128,-1,5
 205 52 205 52 205 18 c 128,-1,6
 205 -16 205 -16 183 -51.5 c 128,-1,7
 161 -87 161 -87 116 -109 c 1,8,-1
 57 -80 l 1,9,10
 119 -50 119 -50 132 -5 c 1,11,0
 109 -3 109 -3 94 10 c 128,-1,1
98.5 345.5 m 128,-1,13
 82 362 82 362 82 385.5 c 128,-1,14
 82 409 82 409 98.5 425.5 c 128,-1,15
 115 442 115 442 140.5 442 c 128,-1,16
 166 442 166 442 183 425.5 c 128,-1,17
 200 409 200 409 200 385.5 c 128,-1,18
 200 362 200 362 183 345.5 c 128,-1,19
 166 329 166 329 140.5 329 c 128,-1,12
 115 329 115 329 98.5 345.5 c 128,-1,13
EndSplineSet
EndChar

StartChar: less
Encoding: 28 60 31
Width: 454
GlyphClass: 2
Flags: HW
LayerCount: 2
Fore
SplineSet
408 512 m 1,0,-1
 120 305 l 1,1,-1
 408 101 l 1,2,-1
 356 40 l 1,3,-1
 40 271 l 1,4,-1
 40 340 l 1,5,-1
 356 572 l 1,6,-1
 408 512 l 1,0,-1
EndSplineSet
EndChar

StartChar: equal
Encoding: 29 61 32
Width: 488
GlyphClass: 2
Flags: HW
LayerCount: 2
Fore
SplineSet
409 185 m 1,0,-1
 409 117 l 1,1,-1
 79 117 l 1,2,-1
 79 185 l 1,3,-1
 409 185 l 1,0,-1
409 377 m 1,4,-1
 409 308 l 1,5,-1
 79 308 l 1,6,-1
 79 377 l 1,7,-1
 409 377 l 1,4,-1
EndSplineSet
EndChar

StartChar: greater
Encoding: 30 62 33
Width: 454
GlyphClass: 2
Flags: HW
LayerCount: 2
Fore
SplineSet
98 572 m 1,0,-1
 414 340 l 1,1,-1
 414 271 l 1,2,-1
 98 40 l 1,3,-1
 47 101 l 1,4,-1
 333 305 l 1,5,-1
 47 512 l 1,6,-1
 98 572 l 1,0,-1
EndSplineSet
EndChar

StartChar: question
Encoding: 31 63 34
Width: 499
GlyphClass: 2
Flags: HW
LayerCount: 2
Fore
SplineSet
248 568 m 0,0,1
 131 568 131 568 114 476 c 1,2,-1
 30 476 l 1,3,4
 37 550 37 550 91 595 c 128,-1,5
 145 640 145 640 242.5 640 c 128,-1,6
 340 640 340 640 396.5 592 c 128,-1,7
 453 544 453 544 453 475 c 0,8,9
 453 423 453 423 427 388.5 c 128,-1,10
 401 354 401 354 343 322 c 0,11,12
 318 308 318 308 301 297 c 128,-1,13
 284 286 284 286 274 272 c 0,14,15
 255 247 255 247 255 200 c 2,16,-1
 255 161 l 1,17,-1
 177 161 l 1,18,-1
 177 206 l 2,19,20
 177 269 177 269 198 302.5 c 128,-1,21
 219 336 219 336 274 366 c 128,-1,22
 329 396 329 396 348 418.5 c 128,-1,23
 367 441 367 441 367 479 c 128,-1,24
 367 517 367 517 335.5 542.5 c 128,-1,25
 304 568 304 568 248 568 c 0,0,1
217 102 m 256,26,27
 243 102 243 102 260 85 c 128,-1,28
 277 68 277 68 277 44.5 c 128,-1,29
 277 21 277 21 260 5 c 128,-1,30
 243 -11 243 -11 217 -11 c 256,31,32
 191 -11 191 -11 175 5 c 128,-1,33
 159 21 159 21 159 44.5 c 128,-1,34
 159 68 159 68 175 85 c 128,-1,35
 191 102 191 102 217 102 c 256,26,27
EndSplineSet
EndChar

StartChar: at
Encoding: 32 64 35
Width: 940
GlyphClass: 2
Flags: HW
LayerCount: 2
Fore
SplineSet
575 289 m 2,0,1
 575 373 575 373 516 373 c 256,2,3
 457 373 457 373 410 324.5 c 128,-1,4
 363 276 363 276 363 202 c 0,5,6
 363 149 363 149 390.5 120 c 128,-1,7
 418 91 418 91 459 91 c 128,-1,8
 500 91 500 91 526 114.5 c 128,-1,9
 552 138 552 138 575 183 c 1,10,-1
 575 289 l 2,0,1
641 138 m 2,11,12
 641 87 641 87 680 87 c 0,13,14
 700 87 700 87 723.5 100.5 c 128,-1,15
 747 114 747 114 766 140 c 0,16,17
 812 201 812 201 812 296 c 0,18,19
 812 415 812 415 731 492 c 128,-1,20
 650 569 650 569 511 569 c 0,21,22
 429 569 429 569 362 541 c 128,-1,23
 295 513 295 513 248 466 c 0,24,25
 148 366 148 366 148 217 c 128,-1,26
 148 68 148 68 254 -24.5 c 128,-1,27
 360 -117 360 -117 545 -117 c 1,28,-1
 545 -181 l 1,29,30
 332 -181 332 -181 198 -66 c 0,31,32
 135 -12 135 -12 101 62.5 c 128,-1,33
 67 137 67 137 67 226 c 128,-1,34
 67 315 67 315 100 391 c 128,-1,35
 133 467 133 467 192 522.5 c 128,-1,36
 251 578 251 578 332.5 609 c 128,-1,37
 414 640 414 640 505 640 c 128,-1,38
 596 640 596 640 667 613 c 128,-1,39
 738 586 738 586 788 539.5 c 128,-1,40
 838 493 838 493 866 430 c 128,-1,41
 894 367 894 367 894 300 c 0,42,43
 894 178 894 178 829.5 103 c 128,-1,44
 765 28 765 28 679 28 c 0,45,46
 636 28 636 28 610 46 c 128,-1,47
 584 64 584 64 579 98 c 1,48,-1
 576 114 l 1,49,50
 558 76 558 76 528 52 c 128,-1,51
 498 28 498 28 458 28 c 0,52,53
 384 28 384 28 336.5 77 c 128,-1,54
 289 126 289 126 289 201 c 0,55,56
 289 300 289 300 355 367.5 c 128,-1,57
 421 435 421 435 512 435 c 0,58,59
 572 435 572 435 606.5 399 c 128,-1,60
 641 363 641 363 641 290 c 2,61,-1
 641 138 l 2,11,12
EndSplineSet
EndChar

StartChar: A
Encoding: 33 65 36
Width: 575
GlyphClass: 2
Flags: HW
LayerCount: 2
Fore
SplineSet
242 629 m 1,0,-1
 338 629 l 1,1,-1
 549 0 l 1,2,-1
 467 0 l 1,3,-1
 413 160 l 1,4,-1
 163 160 l 1,5,-1
 109 0 l 1,6,-1
 26 0 l 1,7,-1
 242 629 l 1,0,-1
184 222 m 1,8,-1
 393 222 l 1,9,-1
 289 532 l 1,10,-1
 184 222 l 1,8,-1
EndSplineSet
EndChar

StartChar: B
Encoding: 34 66 37
Width: 622
GlyphClass: 2
Flags: HW
LayerCount: 2
Fore
SplineSet
101 629 m 1,0,-1
 336 629 l 2,1,2
 435 629 435 629 488.5 582 c 128,-1,3
 542 535 542 535 542 464 c 0,4,5
 542 410 542 410 512.5 370 c 128,-1,6
 483 330 483 330 423 316 c 1,7,8
 482 306 482 306 517.5 265 c 128,-1,9
 553 224 553 224 553 172 c 0,10,11
 553 56 553 56 440 15 c 0,12,13
 398 0 398 0 337 0 c 2,14,-1
 101 0 l 1,15,-1
 101 629 l 1,0,-1
335 69 m 2,16,17
 407 69 407 69 438 98 c 128,-1,18
 469 127 469 127 469 175 c 256,19,20
 469 223 469 223 435 251.5 c 128,-1,21
 401 280 401 280 335 280 c 2,22,-1
 180 280 l 1,23,-1
 180 69 l 1,24,-1
 335 69 l 2,16,17
180 348 m 1,25,-1
 334 348 l 2,26,27
 392 348 392 348 426.5 376.5 c 128,-1,28
 461 405 461 405 461 455 c 128,-1,29
 461 505 461 505 427.5 533 c 128,-1,30
 394 561 394 561 334 561 c 2,31,-1
 180 561 l 1,32,-1
 180 348 l 1,25,-1
EndSplineSet
EndChar

StartChar: C
Encoding: 35 67 38
Width: 613
GlyphClass: 2
Flags: HW
LayerCount: 2
Fore
SplineSet
319 640 m 0,0,1
 420 640 420 640 481.5 589.5 c 128,-1,2
 543 539 543 539 566 458 c 1,3,-1
 481 441 l 1,4,5
 461 500 461 500 418.5 534.5 c 128,-1,6
 376 569 376 569 319 569 c 0,7,8
 240 569 240 569 188 503 c 128,-1,9
 136 437 136 437 136 319.5 c 128,-1,10
 136 202 136 202 182.5 131 c 128,-1,11
 229 60 229 60 319 60 c 0,12,13
 394 60 394 60 437.5 99.5 c 128,-1,14
 481 139 481 139 481 204 c 1,15,-1
 566 204 l 1,16,17
 566 105 566 105 498.5 47 c 128,-1,18
 431 -11 431 -11 313.5 -11 c 128,-1,19
 196 -11 196 -11 123.5 79 c 128,-1,20
 51 169 51 169 51 320 c 128,-1,21
 51 471 51 471 126 555.5 c 128,-1,22
 201 640 201 640 319 640 c 0,0,1
EndSplineSet
EndChar

StartChar: D
Encoding: 36 68 39
Width: 661
GlyphClass: 2
Flags: HW
LayerCount: 2
Fore
SplineSet
285 629 m 2,0,1
 427 629 427 629 512.5 543.5 c 128,-1,2
 598 458 598 458 598 314.5 c 128,-1,3
 598 171 598 171 512.5 85.5 c 128,-1,4
 427 0 427 0 285 0 c 2,5,-1
 100 0 l 1,6,-1
 100 629 l 1,7,-1
 285 629 l 2,0,1
179 69 m 1,8,-1
 285 69 l 2,9,10
 390 69 390 69 452 138.5 c 128,-1,11
 514 208 514 208 514 315 c 256,12,13
 514 422 514 422 451.5 490.5 c 128,-1,14
 389 559 389 559 285 559 c 2,15,-1
 179 559 l 1,16,-1
 179 69 l 1,8,-1
EndSplineSet
EndChar

StartChar: E
Encoding: 37 69 40
Width: 562
GlyphClass: 2
Flags: HW
LayerCount: 2
Fore
SplineSet
100 629 m 1,0,-1
 487 629 l 1,1,-1
 487 561 l 1,2,-1
 179 561 l 1,3,-1
 179 350 l 1,4,-1
 469 350 l 1,5,-1
 469 283 l 1,6,-1
 179 283 l 1,7,-1
 179 69 l 1,8,-1
 487 69 l 1,9,-1
 487 0 l 1,10,-1
 100 0 l 1,11,-1
 100 629 l 1,0,-1
EndSplineSet
EndChar

StartChar: F
Encoding: 38 70 41
Width: 524
GlyphClass: 2
Flags: HW
LayerCount: 2
Fore
SplineSet
101 629 m 1,0,-1
 483 629 l 1,1,-1
 483 561 l 1,2,-1
 180 561 l 1,3,-1
 180 352 l 1,4,-1
 462 352 l 1,5,-1
 462 284 l 1,6,-1
 180 284 l 1,7,-1
 180 0 l 1,8,-1
 101 0 l 1,9,-1
 101 629 l 1,0,-1
EndSplineSet
EndChar

StartChar: G
Encoding: 39 71 42
Width: 645
GlyphClass: 2
Flags: HW
LayerCount: 2
Fore
SplineSet
490 108 m 1,0,1
 448 -11 448 -11 327 -11 c 128,-1,2
 206 -11 206 -11 128.5 77 c 128,-1,3
 51 165 51 165 51 314 c 128,-1,4
 51 463 51 463 135.5 551 c 128,-1,5
 220 639 220 639 346 639 c 0,6,7
 420 639 420 639 475.5 609 c 128,-1,8
 531 579 531 579 571 513 c 1,9,-1
 495 487 l 1,10,11
 430 568 430 568 343 568 c 128,-1,12
 256 568 256 568 195.5 497 c 128,-1,13
 135 426 135 426 135 312.5 c 128,-1,14
 135 199 135 199 187 130 c 128,-1,15
 239 61 239 61 327 61 c 0,16,17
 399 61 399 61 443 109 c 128,-1,18
 487 157 487 157 487 251 c 2,19,-1
 487 253 l 1,20,-1
 329 259 l 1,21,-1
 329 311 l 1,22,-1
 564 311 l 1,23,-1
 564 0 l 1,24,-1
 500 0 l 1,25,-1
 490 108 l 1,0,1
EndSplineSet
EndChar

StartChar: H
Encoding: 40 72 43
Width: 669
GlyphClass: 2
Flags: HW
LayerCount: 2
Fore
SplineSet
180 629 m 1,0,-1
 180 352 l 1,1,-1
 489 352 l 1,2,-1
 489 629 l 1,3,-1
 568 629 l 1,4,-1
 568 0 l 1,5,-1
 489 0 l 1,6,-1
 489 284 l 1,7,-1
 180 284 l 1,8,-1
 180 0 l 1,9,-1
 101 0 l 1,10,-1
 101 629 l 1,11,-1
 180 629 l 1,0,-1
EndSplineSet
EndChar

StartChar: I
Encoding: 41 73 44
Width: 280
GlyphClass: 2
Flags: HW
LayerCount: 2
Fore
SplineSet
101 629 m 1,0,-1
 180 629 l 1,1,-1
 180 0 l 1,2,-1
 101 0 l 1,3,-1
 101 629 l 1,0,-1
EndSplineSet
EndChar

StartChar: J
Encoding: 42 74 45
Width: 404
GlyphClass: 2
Flags: HW
LayerCount: 2
Fore
SplineSet
277.5 34 m 128,-1,1
 231 -11 231 -11 159 -11 c 128,-1,2
 87 -11 87 -11 8 31 c 1,3,-1
 8 113 l 1,4,5
 78 65 78 65 139.5 65 c 128,-1,6
 201 65 201 65 223 95 c 128,-1,7
 245 125 245 125 245 182 c 2,8,-1
 245 629 l 1,9,-1
 324 629 l 1,10,-1
 324 182 l 2,11,0
 324 79 324 79 277.5 34 c 128,-1,1
EndSplineSet
EndChar

StartChar: K
Encoding: 43 75 46
Width: 609
GlyphClass: 2
Flags: HW
LayerCount: 2
Fore
SplineSet
181 629 m 1,0,-1
 181 338 l 1,1,-1
 462 629 l 1,2,-1
 571 629 l 1,3,-1
 296 346 l 1,4,-1
 588 0 l 1,5,-1
 486 0 l 1,6,-1
 243 291 l 1,7,-1
 181 227 l 1,8,-1
 181 0 l 1,9,-1
 101 0 l 1,10,-1
 101 629 l 1,11,-1
 181 629 l 1,0,-1
EndSplineSet
EndChar

StartChar: L
Encoding: 44 76 47
Width: 468
GlyphClass: 2
Flags: HW
LayerCount: 2
Fore
SplineSet
180 69 m 1,0,-1
 460 69 l 1,1,-1
 460 0 l 1,2,-1
 101 0 l 1,3,-1
 101 629 l 1,4,-1
 180 629 l 1,5,-1
 180 69 l 1,0,-1
EndSplineSet
EndChar

StartChar: M
Encoding: 45 77 48
Width: 848
GlyphClass: 2
Flags: HW
LayerCount: 2
Fore
SplineSet
214 629 m 1,0,-1
 426 203 l 1,1,-1
 636 629 l 1,2,-1
 747 629 l 1,3,-1
 747 0 l 1,4,-1
 668 0 l 1,5,-1
 668 517 l 1,6,-1
 452 79 l 1,7,-1
 399 79 l 1,8,-1
 180 524 l 1,9,-1
 180 0 l 1,10,-1
 101 0 l 1,11,-1
 101 629 l 1,12,-1
 214 629 l 1,0,-1
EndSplineSet
EndChar

StartChar: N
Encoding: 46 78 49
Width: 685
GlyphClass: 2
Flags: HW
LayerCount: 2
Fore
SplineSet
193 629 m 1,0,-1
 505 124 l 1,1,-1
 505 629 l 1,2,-1
 584 629 l 1,3,-1
 584 0 l 1,4,-1
 496 0 l 1,5,-1
 179 512 l 1,6,-1
 179 0 l 1,7,-1
 99 0 l 1,8,-1
 99 629 l 1,9,-1
 193 629 l 1,0,-1
EndSplineSet
EndChar

StartChar: O
Encoding: 47 79 50
Width: 646
GlyphClass: 2
Flags: HW
LayerCount: 2
Fore
SplineSet
323 640 m 0,0,1
 445 640 445 640 520.5 556.5 c 128,-1,2
 596 473 596 473 596 313.5 c 128,-1,3
 596 154 596 154 521 71.5 c 128,-1,4
 446 -11 446 -11 323 -11 c 256,5,6
 200 -11 200 -11 125.5 72.5 c 128,-1,7
 51 156 51 156 51 314 c 0,8,9
 51 473 51 473 125.5 556.5 c 128,-1,10
 200 640 200 640 323 640 c 0,0,1
323 569 m 256,11,12
 235 569 235 569 184 503 c 128,-1,13
 133 437 133 437 133 313 c 128,-1,14
 133 189 133 189 184 125 c 128,-1,15
 235 61 235 61 323 61 c 256,16,17
 411 61 411 61 462.5 125 c 128,-1,18
 514 189 514 189 514 313 c 128,-1,19
 514 437 514 437 462.5 503 c 128,-1,20
 411 569 411 569 323 569 c 256,11,12
EndSplineSet
EndChar

StartChar: P
Encoding: 48 80 51
Width: 554
GlyphClass: 2
Flags: HW
LayerCount: 2
Fore
SplineSet
460.5 576.5 m 128,-1,1
 515 524 515 524 515 435 c 128,-1,2
 515 346 515 346 460.5 294.5 c 128,-1,3
 406 243 406 243 302 243 c 2,4,-1
 178 243 l 1,5,-1
 178 0 l 1,6,-1
 99 0 l 1,7,-1
 99 629 l 1,8,-1
 302 629 l 2,9,0
 406 629 406 629 460.5 576.5 c 128,-1,1
302 311 m 2,10,11
 367 311 367 311 400.5 344 c 128,-1,12
 434 377 434 377 434 434.5 c 128,-1,13
 434 492 434 492 400.5 526.5 c 128,-1,14
 367 561 367 561 302 561 c 2,15,-1
 178 561 l 1,16,-1
 178 311 l 1,17,-1
 302 311 l 2,10,11
EndSplineSet
EndChar

StartChar: Q
Encoding: 49 81 52
Width: 652
GlyphClass: 2
Flags: HW
LayerCount: 2
Fore
SplineSet
596 -148 m 1,0,1
 556 -167 556 -167 512 -167 c 0,2,3
 427 -167 427 -167 366 -78 c 1,4,-1
 319 -11 l 1,5,6
 198 -9 198 -9 124.5 74 c 128,-1,7
 51 157 51 157 51 315 c 128,-1,8
 51 473 51 473 125.5 556.5 c 128,-1,9
 200 640 200 640 323 640 c 0,10,11
 445 640 445 640 520.5 556.5 c 128,-1,12
 596 473 596 473 596 314 c 0,13,14
 596 182 596 182 543 101.5 c 128,-1,15
 490 21 490 21 399 -2 c 1,16,-1
 430 -46 l 1,17,18
 459 -85 459 -85 499 -87 c 1,19,20
 542 -87 542 -87 596 -62 c 1,21,-1
 596 -148 l 1,0,1
323 569 m 256,22,23
 235 569 235 569 184 503 c 128,-1,24
 133 437 133 437 133 313 c 128,-1,25
 133 189 133 189 184 125 c 128,-1,26
 235 61 235 61 323 61 c 256,27,28
 411 61 411 61 462.5 125 c 128,-1,29
 514 189 514 189 514 313 c 128,-1,30
 514 437 514 437 462.5 503 c 128,-1,31
 411 569 411 569 323 569 c 256,22,23
EndSplineSet
EndChar

StartChar: R
Encoding: 50 82 53
Width: 613
GlyphClass: 2
Flags: HW
LayerCount: 2
Fore
SplineSet
497.5 323 m 128,-1,1
 456 275 456 275 375 261 c 1,2,-1
 555 0 l 1,3,-1
 453 0 l 1,4,-1
 290 257 l 1,5,-1
 180 257 l 1,6,-1
 180 0 l 1,7,-1
 101 0 l 1,8,-1
 101 629 l 1,9,-1
 320 629 l 2,10,11
 426 629 426 629 482.5 578 c 128,-1,12
 539 527 539 527 539 449 c 128,-1,0
 539 371 539 371 497.5 323 c 128,-1,1
314 312 m 2,13,14
 385 312 385 312 421.5 346.5 c 128,-1,15
 458 381 458 381 458 437.5 c 128,-1,16
 458 494 458 494 422.5 527.5 c 128,-1,17
 387 561 387 561 320 561 c 2,18,-1
 180 561 l 1,19,-1
 180 312 l 1,20,-1
 314 312 l 2,13,14
EndSplineSet
EndChar

StartChar: S
Encoding: 51 83 54
Width: 605
GlyphClass: 2
Flags: HW
LayerCount: 2
Fore
SplineSet
436 476 m 1,0,1
 419 568 419 568 301 568 c 0,2,3
 238 568 238 568 204 540.5 c 128,-1,4
 170 513 170 513 170 474.5 c 128,-1,5
 170 436 170 436 191 416 c 128,-1,6
 212 396 212 396 259 381 c 1,7,-1
 390 336 l 2,8,9
 457 313 457 313 496.5 273 c 128,-1,10
 536 233 536 233 536 160.5 c 128,-1,11
 536 88 536 88 474 38.5 c 128,-1,12
 412 -11 412 -11 308 -11 c 128,-1,13
 204 -11 204 -11 137.5 41.5 c 128,-1,14
 71 94 71 94 69 189 c 1,15,-1
 146 189 l 1,16,17
 146 127 146 127 189.5 94 c 128,-1,18
 233 61 233 61 301.5 61 c 128,-1,19
 370 61 370 61 410 91.5 c 128,-1,20
 450 122 450 122 450 163.5 c 128,-1,21
 450 205 450 205 425.5 229 c 128,-1,22
 401 253 401 253 353 269 c 1,23,-1
 242 310 l 1,24,25
 164 336 164 336 124 372 c 128,-1,26
 84 408 84 408 84 477.5 c 128,-1,27
 84 547 84 547 140 593.5 c 128,-1,28
 196 640 196 640 297 640 c 128,-1,29
 398 640 398 640 451.5 595.5 c 128,-1,30
 505 551 505 551 513 476 c 1,31,-1
 436 476 l 1,0,1
EndSplineSet
EndChar

StartChar: T
Encoding: 52 84 55
Width: 501
GlyphClass: 2
Flags: HW
LayerCount: 2
Fore
SplineSet
6 629 m 1,0,-1
 495 629 l 1,1,-1
 495 561 l 1,2,-1
 290 561 l 1,3,-1
 290 0 l 1,4,-1
 211 0 l 1,5,-1
 211 561 l 1,6,-1
 6 561 l 1,7,-1
 6 629 l 1,0,-1
EndSplineSet
EndChar

StartChar: U
Encoding: 53 85 56
Width: 654
GlyphClass: 2
Flags: HW
LayerCount: 2
Fore
SplineSet
166 629 m 1,0,-1
 166 227 l 2,1,2
 166 139 166 139 210 100 c 128,-1,3
 254 61 254 61 326 61 c 256,4,5
 398 61 398 61 442 100 c 128,-1,6
 486 139 486 139 486 227 c 2,7,-1
 486 629 l 1,8,-1
 565 629 l 1,9,-1
 565 227 l 2,10,11
 565 109 565 109 500 49 c 128,-1,12
 435 -11 435 -11 325.5 -11 c 128,-1,13
 216 -11 216 -11 151.5 49 c 128,-1,14
 87 109 87 109 87 227 c 2,15,-1
 87 629 l 1,16,-1
 166 629 l 1,0,-1
EndSplineSet
EndChar

StartChar: V
Encoding: 54 86 57
Width: 563
GlyphClass: 2
Flags: HW
LayerCount: 2
Fore
SplineSet
101 629 m 1,0,-1
 281 100 l 1,1,-1
 462 629 l 1,2,-1
 545 629 l 1,3,-1
 322 0 l 1,4,-1
 240 0 l 1,5,-1
 18 629 l 1,6,-1
 101 629 l 1,0,-1
EndSplineSet
EndChar

StartChar: W
Encoding: 55 87 58
Width: 895
GlyphClass: 2
Flags: HW
LayerCount: 2
Fore
SplineSet
102 629 m 1,0,-1
 255 106 l 1,1,-1
 410 564 l 1,2,-1
 463 564 l 1,3,-1
 617 106 l 1,4,-1
 793 629 l 1,5,-1
 880 629 l 1,6,-1
 658 0 l 1,7,-1
 575 0 l 1,8,-1
 438 403 l 1,9,-1
 296 0 l 1,10,-1
 213 0 l 1,11,-1
 14 629 l 1,12,-1
 102 629 l 1,0,-1
EndSplineSet
EndChar

StartChar: X
Encoding: 56 88 59
Width: 642
GlyphClass: 2
Flags: HW
LayerCount: 2
Fore
SplineSet
593 0 m 1,0,-1
 495 0 l 1,1,-1
 313 251 l 1,2,-1
 144 0 l 1,3,-1
 48 0 l 1,4,-1
 270 312 l 1,5,-1
 47 629 l 1,6,-1
 142 629 l 1,7,-1
 322 372 l 1,8,-1
 488 629 l 1,9,-1
 583 629 l 1,10,-1
 366 313 l 1,11,-1
 593 0 l 1,0,-1
EndSplineSet
EndChar

StartChar: Y
Encoding: 57 89 60
Width: 549
GlyphClass: 2
Flags: HW
LayerCount: 2
Fore
SplineSet
104 629 m 1,0,-1
 273 340 l 1,1,-1
 446 629 l 1,2,-1
 539 629 l 1,3,-1
 313 258 l 1,4,-1
 313 0 l 1,5,-1
 233 0 l 1,6,-1
 233 258 l 1,7,-1
 10 629 l 1,8,-1
 104 629 l 1,0,-1
EndSplineSet
EndChar

StartChar: Z
Encoding: 58 90 61
Width: 592
GlyphClass: 2
Flags: HW
LayerCount: 2
Fore
SplineSet
73 71 m 1,0,-1
 436 554 l 1,1,-1
 73 557 l 1,2,-1
 73 629 l 1,3,-1
 535 629 l 1,4,-1
 535 558 l 1,5,-1
 172 75 l 1,6,-1
 535 72 l 1,7,-1
 535 0 l 1,8,-1
 73 0 l 1,9,-1
 73 71 l 1,0,-1
EndSplineSet
EndChar

StartChar: bracketleft
Encoding: 59 91 62
Width: 317
GlyphClass: 2
Flags: HW
LayerCount: 2
Fore
SplineSet
101 731 m 1,0,-1
 299 731 l 1,1,-1
 299 661 l 1,2,-1
 180 661 l 1,3,-1
 180 -32 l 1,4,-1
 299 -32 l 1,5,-1
 299 -102 l 1,6,-1
 101 -102 l 1,7,-1
 101 731 l 1,0,-1
EndSplineSet
EndChar

StartChar: backslash
Encoding: 60 92 63
Width: 432
GlyphClass: 2
Flags: HW
LayerCount: 2
Fore
SplineSet
45 731 m 1,0,-1
 124 731 l 1,1,-1
 376 -73 l 1,2,-1
 296 -73 l 1,3,-1
 45 731 l 1,0,-1
EndSplineSet
EndChar

StartChar: bracketright
Encoding: 61 93 64
Width: 285
GlyphClass: 2
Flags: HW
LayerCount: 2
Fore
SplineSet
184 -102 m 1,0,-1
 -14 -102 l 1,1,-1
 -14 -32 l 1,2,-1
 105 -32 l 1,3,-1
 105 661 l 1,4,-1
 -14 661 l 1,5,-1
 -14 731 l 1,6,-1
 184 731 l 1,7,-1
 184 -102 l 1,0,-1
EndSplineSet
EndChar

StartChar: asciicircum
Encoding: 62 94 65
Width: 448
GlyphClass: 2
Flags: HW
LayerCount: 2
Fore
SplineSet
21 245 m 1,0,-1
 197 586 l 1,1,-1
 258 586 l 1,2,-1
 434 245 l 1,3,-1
 346 245 l 1,4,-1
 227 491 l 1,5,-1
 110 245 l 1,6,-1
 21 245 l 1,0,-1
EndSplineSet
EndChar

StartChar: underscore
Encoding: 63 95 66
Width: 726
GlyphClass: 2
Flags: HW
LayerCount: 2
Fore
SplineSet
55 -56 m 1,0,-1
 671 -56 l 1,1,-1
 671 -124 l 1,2,-1
 55 -124 l 1,3,-1
 55 -56 l 1,0,-1
EndSplineSet
EndChar

StartChar: grave
Encoding: 64 96 67
Width: 315
GlyphClass: 2
Flags: HW
LayerCount: 2
Fore
SplineSet
57 860 m 1,0,-1
 292 727 l 1,1,-1
 269 677 l 1,2,-1
 24 790 l 1,3,-1
 57 860 l 1,0,-1
EndSplineSet
EndChar

StartChar: a
Encoding: 65 97 68
Width: 560
GlyphClass: 2
Flags: HW
LayerCount: 2
Fore
SplineSet
397 310 m 2,0,1
 397 375 397 375 370 403 c 128,-1,2
 343 431 343 431 291.5 431 c 128,-1,3
 240 431 240 431 208.5 410.5 c 128,-1,4
 177 390 177 390 177 346 c 1,5,-1
 90 346 l 1,6,7
 90 456 90 456 208 482 c 0,8,9
 244 490 244 490 286 490 c 0,10,11
 375 490 375 490 425 445 c 128,-1,12
 475 400 475 400 475 308 c 2,13,-1
 475 0 l 1,14,-1
 407 0 l 1,15,-1
 399 80 l 1,16,17
 355 -11 355 -11 240 -11 c 0,18,19
 163 -11 163 -11 116.5 32 c 128,-1,20
 70 75 70 75 70 139 c 128,-1,21
 70 203 70 203 121.5 239 c 128,-1,22
 173 275 173 275 250 275 c 128,-1,23
 327 275 327 275 397 249 c 1,24,-1
 397 310 l 2,0,1
397 199 m 1,25,26
 326 219 326 219 273 219 c 128,-1,27
 220 219 220 219 187 200 c 128,-1,28
 154 181 154 181 154 140 c 0,29,30
 154 50 154 50 256 50 c 0,31,32
 314 50 314 50 355.5 91.5 c 128,-1,33
 397 133 397 133 397 199 c 1,25,26
EndSplineSet
EndChar

StartChar: b
Encoding: 66 98 69
Width: 584
GlyphClass: 2
Flags: HW
LayerCount: 2
Fore
SplineSet
180 407 m 1,0,1
 228 490 228 490 320 490 c 128,-1,2
 412 490 412 490 473 421.5 c 128,-1,3
 534 353 534 353 534 240.5 c 128,-1,4
 534 128 534 128 472 58.5 c 128,-1,5
 410 -11 410 -11 321 -11 c 0,6,7
 273 -11 273 -11 234.5 13 c 128,-1,8
 196 37 196 37 174 84 c 1,9,-1
 156 0 l 1,10,-1
 101 0 l 1,11,-1
 101 681 l 1,12,-1
 180 681 l 1,13,-1
 180 407 l 1,0,1
220 383.5 m 128,-1,15
 182 347 182 347 180 282 c 1,16,-1
 180 204 l 2,17,18
 180 138 180 138 219.5 98.5 c 128,-1,19
 259 59 259 59 315 59 c 128,-1,20
 371 59 371 59 412 108.5 c 128,-1,21
 453 158 453 158 453 240 c 128,-1,22
 453 322 453 322 412.5 371 c 128,-1,23
 372 420 372 420 315 420 c 128,-1,14
 258 420 258 420 220 383.5 c 128,-1,15
EndSplineSet
EndChar

StartChar: c
Encoding: 67 99 70
Width: 515
GlyphClass: 2
Flags: HW
LayerCount: 2
Fore
SplineSet
395 446.5 m 128,-1,1
 445 403 445 403 460 338 c 1,2,-1
 380 331 l 1,3,4
 367 373 367 373 338 396.5 c 128,-1,5
 309 420 309 420 274 420 c 0,6,7
 210 420 210 420 170.5 372 c 128,-1,8
 131 324 131 324 131 241.5 c 128,-1,9
 131 159 131 159 169.5 109 c 128,-1,10
 208 59 208 59 265.5 59 c 128,-1,11
 323 59 323 59 351.5 85.5 c 128,-1,12
 380 112 380 112 380 161 c 1,13,-1
 461 161 l 1,14,15
 461 84 461 84 407.5 36.5 c 128,-1,16
 354 -11 354 -11 268 -11 c 0,17,18
 177 -11 177 -11 113.5 58 c 128,-1,19
 50 127 50 127 50 241.5 c 128,-1,20
 50 356 50 356 113 423 c 128,-1,21
 176 490 176 490 260.5 490 c 128,-1,0
 345 490 345 490 395 446.5 c 128,-1,1
EndSplineSet
EndChar

StartChar: d
Encoding: 68 100 71
Width: 594
GlyphClass: 2
Flags: HW
LayerCount: 2
Fore
SplineSet
414 407 m 1,0,-1
 414 681 l 1,1,-1
 492 681 l 1,2,-1
 492 0 l 1,3,-1
 428 0 l 1,4,-1
 418 80 l 1,5,6
 395 35 395 35 357 12 c 128,-1,7
 319 -11 319 -11 274 -11 c 0,8,9
 183 -11 183 -11 121.5 59 c 128,-1,10
 60 129 60 129 60 241.5 c 128,-1,11
 60 354 60 354 120.5 422 c 128,-1,12
 181 490 181 490 273.5 490 c 128,-1,13
 366 490 366 490 414 407 c 1,0,-1
180.5 371 m 128,-1,15
 141 322 141 322 141 240 c 128,-1,16
 141 158 141 158 181 108.5 c 128,-1,17
 221 59 221 59 277 59 c 128,-1,18
 333 59 333 59 372.5 96.5 c 128,-1,19
 412 134 412 134 414 197 c 1,20,-1
 414 275 l 2,21,22
 414 342 414 342 375 381 c 128,-1,23
 336 420 336 420 278 420 c 128,-1,14
 220 420 220 420 180.5 371 c 128,-1,15
EndSplineSet
EndChar

StartChar: e
Encoding: 69 101 72
Width: 515
GlyphClass: 2
Flags: HW
LayerCount: 2
Fore
SplineSet
266 53 m 0,0,1
 365 53 365 53 379 140 c 1,2,-1
 460 140 l 1,3,4
 449 68 449 68 396.5 28.5 c 128,-1,5
 344 -11 344 -11 266 -11 c 0,6,7
 170 -11 170 -11 110 57.5 c 128,-1,8
 50 126 50 126 50 240 c 128,-1,9
 50 354 50 354 110.5 422 c 128,-1,10
 171 490 171 490 271.5 490 c 128,-1,11
 372 490 372 490 421.5 412 c 128,-1,12
 471 334 471 334 456 222 c 1,13,-1
 129 222 l 1,14,15
 129 148 129 148 165 100.5 c 128,-1,16
 201 53 201 53 266 53 c 0,0,1
324 415 m 0,17,18
 301 427 301 427 268 427 c 0,19,20
 207 427 207 427 171.5 385.5 c 128,-1,21
 136 344 136 344 130 282 c 1,22,-1
 385 282 l 1,23,24
 385 382 385 382 324 415 c 0,17,18
EndSplineSet
EndChar

StartChar: f
Encoding: 70 102 73
Width: 343
GlyphClass: 2
Flags: HW
LayerCount: 2
Fore
SplineSet
333 614 m 1,0,1
 300 627 300 627 281 627 c 0,2,3
 246 627 246 627 226 610 c 128,-1,4
 206 593 206 593 206 550 c 2,5,-1
 206 478 l 1,6,-1
 305 478 l 1,7,-1
 305 424 l 1,8,-1
 206 424 l 1,9,-1
 206 0 l 1,10,-1
 128 0 l 1,11,-1
 128 424 l 1,12,-1
 49 424 l 1,13,-1
 49 478 l 1,14,-1
 128 478 l 1,15,-1
 128 551 l 2,16,17
 128 622 128 622 167 655.5 c 128,-1,18
 206 689 206 689 257 689 c 128,-1,19
 308 689 308 689 347 676 c 1,20,-1
 333 614 l 1,0,1
EndSplineSet
EndChar

StartChar: g
Encoding: 71 103 74
Width: 565
GlyphClass: 2
Flags: HW
LayerCount: 2
Fore
SplineSet
121 15 m 1,0,1
 61 44 61 44 61 104 c 0,2,3
 61 135 61 135 84.5 158.5 c 128,-1,4
 108 182 108 182 143 190 c 1,5,6
 89 238 89 238 89 316 c 256,7,8
 89 394 89 394 144.5 442 c 128,-1,9
 200 490 200 490 276 490 c 128,-1,10
 352 490 352 490 405 454 c 1,11,12
 412 507 412 507 447.5 539 c 128,-1,13
 483 571 483 571 541 571 c 1,14,-1
 534 493 l 1,15,16
 446 493 446 493 442 419 c 1,17,18
 477 376 477 376 477 316 c 0,19,20
 477 239 477 239 421.5 189.5 c 128,-1,21
 366 140 366 140 283 140 c 0,22,23
 226 140 226 140 182 163 c 1,24,25
 162 159 162 159 146 144.5 c 128,-1,26
 130 130 130 130 130 105 c 0,27,28
 130 52 130 52 218 52 c 2,29,-1
 404 52 l 2,30,31
 471 52 471 52 510 23.5 c 128,-1,32
 549 -5 549 -5 549 -56 c 0,33,34
 549 -132 549 -132 472.5 -189 c 128,-1,35
 396 -246 396 -246 279 -246 c 128,-1,36
 162 -246 162 -246 95 -202.5 c 128,-1,37
 28 -159 28 -159 28 -93 c 0,38,39
 28 -50 28 -50 53.5 -23 c 128,-1,40
 79 4 79 4 121 15 c 1,0,1
106 -90 m 256,41,42
 106 -128 106 -128 147.5 -155.5 c 128,-1,43
 189 -183 189 -183 273.5 -183 c 128,-1,44
 358 -183 358 -183 414.5 -146.5 c 128,-1,45
 471 -110 471 -110 471 -61 c 0,46,47
 471 -38 471 -38 454.5 -21.5 c 128,-1,48
 438 -5 438 -5 404 -5 c 2,49,-1
 211 -5 l 1,50,51
 160 -7 160 -7 133 -29.5 c 128,-1,52
 106 -52 106 -52 106 -90 c 256,41,42
369 400.5 m 128,-1,54
 338 433 338 433 283.5 433 c 128,-1,55
 229 433 229 433 198 400.5 c 128,-1,56
 167 368 167 368 167 316 c 256,57,58
 167 264 167 264 198.5 230.5 c 128,-1,59
 230 197 230 197 284 197 c 256,60,61
 338 197 338 197 369 231 c 128,-1,62
 400 265 400 265 400 316.5 c 128,-1,53
 400 368 400 368 369 400.5 c 128,-1,54
EndSplineSet
EndChar

StartChar: h
Encoding: 72 104 75
Width: 604
GlyphClass: 2
Flags: HW
LayerCount: 2
Fore
SplineSet
180 390 m 1,0,1
 228 490 228 490 339 490 c 0,2,3
 424 490 424 490 471.5 434 c 128,-1,4
 519 378 519 378 519 281 c 2,5,-1
 519 0 l 1,6,-1
 441 0 l 1,7,-1
 441 281 l 2,8,9
 441 350 441 350 408.5 385 c 128,-1,10
 376 420 376 420 315 420 c 128,-1,11
 254 420 254 420 217 368.5 c 128,-1,12
 180 317 180 317 180 226 c 2,13,-1
 180 0 l 1,14,-1
 101 0 l 1,15,-1
 101 681 l 1,16,-1
 180 681 l 1,17,-1
 180 390 l 1,0,1
EndSplineSet
EndChar

StartChar: i
Encoding: 73 105 76
Width: 299
GlyphClass: 2
Flags: HW
LayerCount: 2
Fore
SplineSet
106 479 m 1,0,-1
 185 479 l 1,1,-1
 185 0 l 1,2,-1
 106 0 l 1,3,-1
 106 479 l 1,0,-1
107.5 604.5 m 128,-1,5
 94 618 94 618 94 640.5 c 128,-1,6
 94 663 94 663 107.5 676.5 c 128,-1,7
 121 690 121 690 145 690 c 128,-1,8
 169 690 169 690 183.5 676.5 c 128,-1,9
 198 663 198 663 198 640.5 c 128,-1,10
 198 618 198 618 183.5 604.5 c 128,-1,11
 169 591 169 591 145 591 c 128,-1,4
 121 591 121 591 107.5 604.5 c 128,-1,5
EndSplineSet
EndChar

StartChar: j
Encoding: 74 106 77
Width: 314
GlyphClass: 2
Flags: HW
LayerCount: 2
Fore
SplineSet
122.5 604.5 m 128,-1,1
 109 618 109 618 109 640.5 c 128,-1,2
 109 663 109 663 122.5 676.5 c 128,-1,3
 136 690 136 690 160 690 c 256,4,5
 184 690 184 690 198.5 676.5 c 128,-1,6
 213 663 213 663 213 640.5 c 128,-1,7
 213 618 213 618 198.5 604.5 c 128,-1,8
 184 591 184 591 160 591 c 256,9,0
 136 591 136 591 122.5 604.5 c 128,-1,1
33 -177 m 0,10,11
 121 -177 121 -177 121 -67 c 2,12,-1
 121 480 l 1,13,-1
 200 480 l 1,14,-1
 200 -67 l 2,15,16
 200 -204 200 -204 110 -236 c 0,17,18
 82 -246 82 -246 48 -246 c 0,19,20
 -14 -246 -14 -246 -86 -209 c 1,21,-1
 -82 -140 l 1,22,23
 -19 -177 -19 -177 33 -177 c 0,10,11
EndSplineSet
EndChar

StartChar: k
Encoding: 75 107 78
Width: 564
GlyphClass: 2
Flags: HW
LayerCount: 2
Fore
SplineSet
244 253 m 1,0,-1
 180 201 l 1,1,-1
 180 0 l 1,2,-1
 101 0 l 1,3,-1
 101 681 l 1,4,-1
 180 681 l 1,5,-1
 180 285 l 1,6,-1
 411 478 l 1,7,-1
 521 478 l 1,8,-1
 301 299 l 1,9,-1
 532 0 l 1,10,-1
 435 0 l 1,11,-1
 244 253 l 1,0,-1
EndSplineSet
EndChar

StartChar: l
Encoding: 76 108 79
Width: 280
GlyphClass: 2
Flags: HW
LayerCount: 2
Fore
SplineSet
101 681 m 1,0,-1
 180 681 l 1,1,-1
 180 0 l 1,2,-1
 101 0 l 1,3,-1
 101 681 l 1,0,-1
EndSplineSet
EndChar

StartChar: m
Encoding: 77 109 80
Width: 935
GlyphClass: 2
Flags: HW
LayerCount: 2
Fore
SplineSet
177 386 m 1,0,1
 224 490 224 490 338 490 c 0,2,3
 400 490 400 490 442 459.5 c 128,-1,4
 484 429 484 429 503 375 c 1,5,6
 548 490 548 490 670 490 c 0,7,8
 756 490 756 490 803 434 c 128,-1,9
 850 378 850 378 850 281 c 2,10,-1
 850 0 l 1,11,-1
 772 0 l 1,12,-1
 772 281 l 2,13,14
 772 350 772 350 739.5 385 c 128,-1,15
 707 420 707 420 646 420 c 128,-1,16
 585 420 585 420 551.5 370 c 128,-1,17
 518 320 518 320 518 232 c 2,18,-1
 518 0 l 1,19,-1
 440 0 l 1,20,-1
 440 281 l 2,21,22
 440 350 440 350 407.5 385 c 128,-1,23
 375 420 375 420 315 420 c 128,-1,24
 255 420 255 420 218 371 c 128,-1,25
 181 322 181 322 179 235 c 1,26,-1
 179 0 l 1,27,-1
 100 0 l 1,28,-1
 100 478 l 1,29,-1
 168 478 l 1,30,-1
 177 386 l 1,0,1
EndSplineSet
EndChar

StartChar: n
Encoding: 78 110 81
Width: 603
GlyphClass: 2
Flags: HW
LayerCount: 2
Fore
SplineSet
177 386 m 1,0,1
 224 490 224 490 338 490 c 0,2,3
 423 490 423 490 470.5 434 c 128,-1,4
 518 378 518 378 518 281 c 2,5,-1
 518 0 l 1,6,-1
 440 0 l 1,7,-1
 440 281 l 2,8,9
 440 350 440 350 407.5 385 c 128,-1,10
 375 420 375 420 315 420 c 128,-1,11
 255 420 255 420 218 371 c 128,-1,12
 181 322 181 322 179 235 c 1,13,-1
 179 0 l 1,14,-1
 100 0 l 1,15,-1
 100 478 l 1,16,-1
 168 478 l 1,17,-1
 177 386 l 1,0,1
EndSplineSet
EndChar

StartChar: o
Encoding: 79 111 82
Width: 546
GlyphClass: 2
Flags: HW
LayerCount: 2
Fore
SplineSet
273 490 m 256,0,1
 373 490 373 490 434.5 425 c 128,-1,2
 496 360 496 360 496 239 c 0,3,4
 496 119 496 119 434.5 54 c 128,-1,5
 373 -11 373 -11 273 -11 c 256,6,7
 173 -11 173 -11 111.5 54 c 128,-1,8
 50 119 50 119 50 239 c 0,9,10
 50 360 50 360 111.5 425 c 128,-1,11
 173 490 173 490 273 490 c 256,0,1
380 373.5 m 128,-1,13
 344 422 344 422 274.5 422 c 128,-1,14
 205 422 205 422 168 373.5 c 128,-1,15
 131 325 131 325 131 239.5 c 128,-1,16
 131 154 131 154 166 105.5 c 128,-1,17
 201 57 201 57 270.5 57 c 128,-1,18
 340 57 340 57 378 105.5 c 128,-1,19
 416 154 416 154 416 239.5 c 128,-1,12
 416 325 416 325 380 373.5 c 128,-1,13
EndSplineSet
EndChar

StartChar: p
Encoding: 80 112 83
Width: 594
GlyphClass: 2
Flags: HW
LayerCount: 2
Fore
SplineSet
175 405 m 1,0,1
 222 490 222 490 315.5 490 c 128,-1,2
 409 490 409 490 471.5 421 c 128,-1,3
 534 352 534 352 534 239 c 128,-1,4
 534 126 534 126 471 57.5 c 128,-1,5
 408 -11 408 -11 316 -11 c 128,-1,6
 224 -11 224 -11 180 58 c 1,7,-1
 180 -235 l 1,8,-1
 101 -235 l 1,9,-1
 101 478 l 1,10,-1
 166 478 l 1,11,-1
 175 405 l 1,0,1
410.5 107 m 128,-1,13
 453 155 453 155 453 238.5 c 128,-1,14
 453 322 453 322 412.5 371 c 128,-1,15
 372 420 372 420 314 420 c 128,-1,16
 256 420 256 420 219 383.5 c 128,-1,17
 182 347 182 347 180 285 c 1,18,-1
 180 194 l 2,19,20
 180 131 180 131 218 95 c 128,-1,21
 256 59 256 59 312 59 c 128,-1,12
 368 59 368 59 410.5 107 c 128,-1,13
EndSplineSet
EndChar

StartChar: q
Encoding: 81 113 84
Width: 585
GlyphClass: 2
Flags: HW
LayerCount: 2
Fore
SplineSet
264 490 m 0,0,1
 366 490 366 490 412 400 c 1,2,-1
 429 478 l 1,3,-1
 483 478 l 1,4,-1
 483 -81 l 2,5,6
 483 -130 483 -130 494.5 -146.5 c 128,-1,7
 506 -163 506 -163 520.5 -170.5 c 128,-1,8
 535 -178 535 -178 556 -185 c 1,9,-1
 530 -246 l 1,10,11
 462 -228 462 -228 433.5 -189 c 128,-1,12
 405 -150 405 -150 405 -76 c 2,13,-1
 405 76 l 1,14,15
 364 -11 364 -11 270.5 -11 c 128,-1,16
 177 -11 177 -11 114 57.5 c 128,-1,17
 51 126 51 126 51 239 c 128,-1,18
 51 352 51 352 113.5 421 c 128,-1,19
 176 490 176 490 264 490 c 0,0,1
172.5 371 m 128,-1,21
 132 322 132 322 132 238.5 c 128,-1,22
 132 155 132 155 175 107 c 128,-1,23
 218 59 218 59 275 59 c 0,24,25
 357 59 357 59 392 132 c 0,26,27
 404 155 404 155 405 187 c 1,28,-1
 405 278 l 2,29,30
 405 344 405 344 367 382 c 128,-1,31
 329 420 329 420 271 420 c 128,-1,20
 213 420 213 420 172.5 371 c 128,-1,21
EndSplineSet
EndChar

StartChar: r
Encoding: 82 114 85
Width: 381
GlyphClass: 2
Flags: HW
LayerCount: 2
Fore
SplineSet
296 411 m 0,0,1
 183 411 183 411 179 233 c 1,2,-1
 179 0 l 1,3,-1
 100 0 l 1,4,-1
 100 479 l 1,5,-1
 179 479 l 1,6,-1
 179 387 l 1,7,8
 215 487 215 487 306 487 c 0,9,10
 335 487 335 487 361 478 c 1,11,-1
 357 401 l 1,12,13
 327 411 327 411 296 411 c 0,0,1
EndSplineSet
EndChar

StartChar: s
Encoding: 83 115 86
Width: 526
GlyphClass: 2
Flags: HW
LayerCount: 2
Fore
SplineSet
126.5 455 m 128,-1,1
 177 490 177 490 263 490 c 128,-1,2
 349 490 349 490 397.5 454 c 128,-1,3
 446 418 446 418 448 363 c 1,4,-1
 371 363 l 1,5,6
 362 428 362 428 261 428 c 0,7,8
 212 428 212 428 185.5 406 c 128,-1,9
 159 384 159 384 159 358.5 c 128,-1,10
 159 333 159 333 179 315.5 c 128,-1,11
 199 298 199 298 243 285 c 1,12,-1
 339 253 l 1,13,14
 400 234 400 234 432.5 204.5 c 128,-1,15
 465 175 465 175 465 123.5 c 128,-1,16
 465 72 465 72 412 30.5 c 128,-1,17
 359 -11 359 -11 264 -11 c 128,-1,18
 169 -11 169 -11 116 31.5 c 128,-1,19
 63 74 63 74 60 141 c 1,20,-1
 136 141 l 1,21,22
 138 96 138 96 172.5 73.5 c 128,-1,23
 207 51 207 51 259 51 c 128,-1,24
 311 51 311 51 345 73 c 128,-1,25
 379 95 379 95 379 125.5 c 128,-1,26
 379 156 379 156 359 172 c 128,-1,27
 339 188 339 188 294 200 c 1,28,-1
 201 231 l 1,29,30
 76 268 76 268 76 361 c 0,31,0
 76 420 76 420 126.5 455 c 128,-1,1
EndSplineSet
EndChar

StartChar: t
Encoding: 84 116 87
Width: 376
GlyphClass: 2
Flags: HW
LayerCount: 2
Fore
SplineSet
351 14 m 1,0,1
 265 -26 265 -26 194 -3 c 0,2,3
 143 13 143 13 122 64 c 0,4,5
 111 89 111 89 111 124 c 2,6,-1
 111 418 l 1,7,-1
 34 418 l 1,8,-1
 34 478 l 1,9,-1
 111 478 l 1,10,-1
 111 611 l 1,11,-1
 189 611 l 1,12,-1
 189 478 l 1,13,-1
 339 478 l 1,14,-1
 339 418 l 1,15,-1
 189 418 l 1,16,-1
 189 125 l 2,17,18
 189 52 189 52 257 52 c 0,19,20
 294 52 294 52 340 70 c 1,21,-1
 351 14 l 1,0,1
EndSplineSet
EndChar

StartChar: u
Encoding: 85 117 88
Width: 606
GlyphClass: 2
Flags: HW
LayerCount: 2
Fore
SplineSet
426 95 m 1,0,1
 377 -9 377 -9 267 -9 c 0,2,3
 186 -9 186 -9 136.5 36 c 128,-1,4
 87 81 87 81 87 175 c 2,5,-1
 87 479 l 1,6,-1
 166 479 l 1,7,-1
 166 181 l 2,8,9
 166 60 166 60 278 60 c 0,10,11
 343 60 343 60 383.5 110 c 128,-1,12
 424 160 424 160 426 238 c 1,13,-1
 426 479 l 1,14,-1
 505 479 l 1,15,-1
 505 0 l 1,16,-1
 426 0 l 1,17,-1
 426 95 l 1,0,1
EndSplineSet
EndChar

StartChar: v
Encoding: 86 118 89
Width: 503
GlyphClass: 2
Flags: HW
LayerCount: 2
Fore
SplineSet
107 478 m 1,0,-1
 251 83 l 1,1,-1
 396 478 l 1,2,-1
 485 478 l 1,3,-1
 295 0 l 1,4,-1
 208 0 l 1,5,-1
 18 478 l 1,6,-1
 107 478 l 1,0,-1
EndSplineSet
EndChar

StartChar: w
Encoding: 87 119 90
Width: 725
GlyphClass: 2
Flags: HW
LayerCount: 2
Fore
SplineSet
100 478 m 1,0,-1
 216 97 l 1,1,-1
 330 455 l 1,2,-1
 396 455 l 1,3,-1
 509 93 l 1,4,-1
 626 478 l 1,5,-1
 704 478 l 1,6,-1
 548 0 l 1,7,-1
 471 0 l 1,8,-1
 361 335 l 1,9,-1
 253 0 l 1,10,-1
 177 0 l 1,11,-1
 18 478 l 1,12,-1
 100 478 l 1,0,-1
EndSplineSet
EndChar

StartChar: x
Encoding: 88 120 91
Width: 512
GlyphClass: 2
Flags: HW
LayerCount: 2
Fore
SplineSet
485 0 m 1,0,-1
 389 0 l 1,1,-1
 252 181 l 1,2,-1
 122 0 l 1,3,-1
 26 0 l 1,4,-1
 207 239 l 1,5,-1
 26 479 l 1,6,-1
 122 479 l 1,7,-1
 259 299 l 1,8,-1
 390 479 l 1,9,-1
 486 479 l 1,10,-1
 303 239 l 1,11,-1
 485 0 l 1,0,-1
EndSplineSet
EndChar

StartChar: y
Encoding: 89 121 92
Width: 484
GlyphClass: 2
Flags: HW
LayerCount: 2
Fore
SplineSet
5 -139 m 1,0,1
 54 -177 54 -177 108 -177 c 0,2,3
 148 -177 148 -177 177 -137 c 0,4,5
 198 -108 198 -108 215 -49 c 2,6,-1
 229 0 l 1,7,-1
 33 478 l 1,8,-1
 121 478 l 1,9,-1
 266 97 l 1,10,-1
 379 478 l 1,11,-1
 459 478 l 1,12,-1
 280 -95 l 2,13,14
 257 -168 257 -168 219.5 -207 c 128,-1,15
 182 -246 182 -246 124.5 -246 c 128,-1,16
 67 -246 67 -246 5 -211 c 1,17,-1
 5 -139 l 1,0,1
EndSplineSet
EndChar

StartChar: z
Encoding: 90 122 93
Width: 475
GlyphClass: 2
Flags: HW
LayerCount: 2
Fore
SplineSet
53 64 m 1,0,-1
 334 414 l 1,1,-1
 53 414 l 1,2,-1
 53 478 l 1,3,-1
 423 478 l 1,4,-1
 423 414 l 1,5,-1
 146 64 l 1,6,-1
 423 64 l 1,7,-1
 423 0 l 1,8,-1
 53 0 l 1,9,-1
 53 64 l 1,0,-1
EndSplineSet
EndChar

StartChar: braceleft
Encoding: 91 123 94
Width: 349
GlyphClass: 2
Flags: HW
LayerCount: 2
Fore
SplineSet
154 303 m 1,0,1
 206 278 206 278 206 190 c 2,2,-1
 206 97 l 2,3,4
 206 16 206 16 236.5 -26.5 c 128,-1,5
 267 -69 267 -69 341 -69 c 1,6,-1
 341 -138 l 1,7,8
 128 -138 128 -138 128 96 c 2,9,-1
 128 188 l 2,10,11
 128 231 128 231 119.5 249 c 128,-1,12
 111 267 111 267 92 267 c 2,13,-1
 75 267 l 1,14,-1
 75 343 l 1,15,-1
 92 343 l 2,16,17
 111 343 111 343 119.5 360.5 c 128,-1,18
 128 378 128 378 128 422 c 2,19,-1
 128 513 l 2,20,21
 128 681 128 681 242 730 c 0,22,23
 282 748 282 748 341 748 c 1,24,-1
 341 679 l 1,25,26
 267 679 267 679 236.5 636.5 c 128,-1,27
 206 594 206 594 206 512 c 2,28,-1
 206 420 l 2,29,30
 206 334 206 334 154 307 c 1,31,-1
 154 303 l 1,0,1
EndSplineSet
EndChar

StartChar: bar
Encoding: 92 124 95
Width: 280
GlyphClass: 2
Flags: HW
LayerCount: 2
Fore
SplineSet
101 750 m 1,0,-1
 180 750 l 1,1,-1
 180 -122 l 1,2,-1
 101 -122 l 1,3,-1
 101 750 l 1,0,-1
EndSplineSet
EndChar

StartChar: braceright
Encoding: 93 125 96
Width: 349
GlyphClass: 2
Flags: HW
LayerCount: 2
Fore
SplineSet
195 307 m 1,0,1
 143 334 143 334 143 420 c 2,2,-1
 143 512 l 2,3,4
 143 594 143 594 112.5 636.5 c 128,-1,5
 82 679 82 679 8 679 c 1,6,-1
 8 748 l 1,7,8
 221 748 221 748 221 513 c 2,9,-1
 221 422 l 2,10,11
 221 378 221 378 229.5 360.5 c 128,-1,12
 238 343 238 343 257 343 c 2,13,-1
 274 343 l 1,14,-1
 274 267 l 1,15,-1
 257 267 l 2,16,17
 238 267 238 267 229.5 249 c 128,-1,18
 221 231 221 231 221 188 c 2,19,-1
 221 96 l 2,20,21
 221 -72 221 -72 107 -120 c 0,22,23
 66 -138 66 -138 8 -138 c 1,24,-1
 8 -69 l 1,25,26
 82 -69 82 -69 112.5 -26.5 c 128,-1,27
 143 16 143 16 143 97 c 2,28,-1
 143 190 l 2,29,30
 143 278 143 278 195 303 c 1,31,-1
 195 307 l 1,0,1
EndSplineSet
EndChar

StartChar: asciitilde
Encoding: 94 126 97
Width: 515
GlyphClass: 2
Flags: HW
LayerCount: 2
Fore
SplineSet
158 282 m 0,0,1
 121 282 121 282 97 223 c 1,2,-1
 53 246 l 1,3,4
 86 357 86 357 160 357 c 0,5,6
 194 357 194 357 261 329.5 c 128,-1,7
 328 302 328 302 354 302 c 0,8,9
 394 302 394 302 419 359 c 1,10,-1
 462 332 l 1,11,12
 427 226 427 226 349 226 c 0,13,14
 326 226 326 226 278 244 c 128,-1,15
 230 262 230 262 216 268 c 0,16,17
 177 282 177 282 158 282 c 0,0,1
EndSplineSet
EndChar

StartChar: sterling
Encoding: 96 163 98
Width: 565
GlyphClass: 2
Flags: HW
LayerCount: 2
Fore
SplineSet
400 490 m 1,0,1
 384 568 384 568 298 568 c 0,2,3
 256 568 256 568 227.5 536 c 128,-1,4
 199 504 199 504 199 432 c 2,5,-1
 199 323 l 1,6,-1
 381 323 l 1,7,-1
 381 267 l 1,8,-1
 199 267 l 1,9,-1
 199 163 l 2,10,11
 199 95 199 95 162 69 c 1,12,-1
 345 69 l 2,13,14
 394 69 394 69 416.5 89.5 c 128,-1,15
 439 110 439 110 445 154 c 1,16,-1
 529 154 l 1,17,18
 523 77 523 77 481 38.5 c 128,-1,19
 439 0 439 0 345 0 c 2,20,-1
 20 0 l 1,21,-1
 20 69 l 1,22,-1
 48 69 l 2,23,24
 86 69 86 69 103.5 91 c 128,-1,25
 121 113 121 113 121 159 c 2,26,-1
 121 267 l 1,27,-1
 30 267 l 1,28,-1
 30 323 l 1,29,-1
 121 323 l 1,30,-1
 121 432 l 2,31,32
 121 531 121 531 167.5 585.5 c 128,-1,33
 214 640 214 640 305 640 c 0,34,35
 376 640 376 640 421 602 c 128,-1,36
 466 564 466 564 477 490 c 1,37,-1
 400 490 l 1,0,1
EndSplineSet
EndChar

StartChar: dieresis
Encoding: 97 168 99
Width: 323
GlyphClass: 2
Flags: HW
LayerCount: 2
Fore
SplineSet
38.5 793.5 m 128,-1,1
 24 808 24 808 24 829 c 128,-1,2
 24 850 24 850 38.5 864.5 c 128,-1,3
 53 879 53 879 76 879 c 256,4,5
 99 879 99 879 114.5 864.5 c 128,-1,6
 130 850 130 850 130 829 c 128,-1,7
 130 808 130 808 114.5 793.5 c 128,-1,8
 99 779 99 779 76 779 c 256,9,0
 53 779 53 779 38.5 793.5 c 128,-1,1
207 793.5 m 128,-1,11
 192 808 192 808 192 829 c 128,-1,12
 192 850 192 850 207 864.5 c 128,-1,13
 222 879 222 879 244.5 879 c 128,-1,14
 267 879 267 879 282.5 864.5 c 128,-1,15
 298 850 298 850 298 829 c 128,-1,16
 298 808 298 808 282.5 793.5 c 128,-1,17
 267 779 267 779 244.5 779 c 128,-1,10
 222 779 222 779 207 793.5 c 128,-1,11
EndSplineSet
EndChar

StartChar: acute
Encoding: 98 180 100
Width: 315
GlyphClass: 2
Flags: HW
LayerCount: 2
Fore
SplineSet
290 790 m 1,0,-1
 46 677 l 1,1,-1
 23 727 l 1,2,-1
 258 860 l 1,3,-1
 290 790 l 1,0,-1
EndSplineSet
EndChar

StartChar: Agrave
Encoding: 99 192 101
Width: 575
GlyphClass: 2
Flags: HW
LayerCount: 2
Fore
SplineSet
242 629 m 1,0,-1
 338 629 l 1,1,-1
 549 0 l 1,2,-1
 467 0 l 1,3,-1
 413 160 l 1,4,-1
 163 160 l 1,5,-1
 109 0 l 1,6,-1
 26 0 l 1,7,-1
 242 629 l 1,0,-1
184 222 m 1,8,-1
 393 222 l 1,9,-1
 289 532 l 1,10,-1
 184 222 l 1,8,-1
190 860 m 1,11,-1
 425 727 l 1,12,-1
 402 677 l 1,13,-1
 157 790 l 1,14,-1
 190 860 l 1,11,-1
EndSplineSet
EndChar

StartChar: Aacute
Encoding: 100 193 102
Width: 575
GlyphClass: 2
Flags: HW
LayerCount: 2
Fore
SplineSet
242 629 m 1,0,-1
 338 629 l 1,1,-1
 549 0 l 1,2,-1
 467 0 l 1,3,-1
 413 160 l 1,4,-1
 163 160 l 1,5,-1
 109 0 l 1,6,-1
 26 0 l 1,7,-1
 242 629 l 1,0,-1
184 222 m 1,8,-1
 393 222 l 1,9,-1
 289 532 l 1,10,-1
 184 222 l 1,8,-1
423 790 m 1,11,-1
 179 677 l 1,12,-1
 156 727 l 1,13,-1
 391 860 l 1,14,-1
 423 790 l 1,11,-1
EndSplineSet
EndChar

StartChar: Acircumflex
Encoding: 101 194 103
Width: 575
GlyphClass: 2
Flags: HW
LayerCount: 2
Fore
SplineSet
242 629 m 1,0,-1
 338 629 l 1,1,-1
 549 0 l 1,2,-1
 467 0 l 1,3,-1
 413 160 l 1,4,-1
 163 160 l 1,5,-1
 109 0 l 1,6,-1
 26 0 l 1,7,-1
 242 629 l 1,0,-1
184 222 m 1,8,-1
 393 222 l 1,9,-1
 289 532 l 1,10,-1
 184 222 l 1,8,-1
469 716 m 1,11,-1
 419 677 l 1,12,-1
 290 785 l 1,13,-1
 160 677 l 1,14,-1
 110 716 l 1,15,-1
 290 872 l 1,16,-1
 469 716 l 1,11,-1
EndSplineSet
EndChar

StartChar: Atilde
Encoding: 102 195 104
Width: 575
GlyphClass: 2
Flags: HW
LayerCount: 2
Fore
SplineSet
242 629 m 1,0,-1
 338 629 l 1,1,-1
 549 0 l 1,2,-1
 467 0 l 1,3,-1
 413 160 l 1,4,-1
 163 160 l 1,5,-1
 109 0 l 1,6,-1
 26 0 l 1,7,-1
 242 629 l 1,0,-1
184 222 m 1,8,-1
 393 222 l 1,9,-1
 289 532 l 1,10,-1
 184 222 l 1,8,-1
221 770 m 0,11,12
 189 770 189 770 164 719 c 1,13,-1
 132 738 l 1,14,15
 144 789 144 789 167 815.5 c 128,-1,16
 190 842 190 842 216 842 c 128,-1,17
 242 842 242 842 276 825 c 0,18,19
 322 802 322 802 335.5 796 c 128,-1,20
 349 790 349 790 362 790 c 128,-1,21
 375 790 375 790 389 802.5 c 128,-1,22
 403 815 403 815 413 842 c 1,23,-1
 448 819 l 1,24,25
 437 771 437 771 412.5 745 c 128,-1,26
 388 719 388 719 367.5 719 c 128,-1,27
 347 719 347 719 330 725 c 128,-1,28
 313 731 313 731 283 746.5 c 128,-1,29
 253 762 253 762 242.5 766 c 128,-1,30
 232 770 232 770 221 770 c 0,11,12
EndSplineSet
EndChar

StartChar: Adieresis
Encoding: 103 196 105
Width: 575
GlyphClass: 2
Flags: HW
LayerCount: 2
Fore
SplineSet
242 629 m 1,0,-1
 338 629 l 1,1,-1
 549 0 l 1,2,-1
 467 0 l 1,3,-1
 413 160 l 1,4,-1
 163 160 l 1,5,-1
 109 0 l 1,6,-1
 26 0 l 1,7,-1
 242 629 l 1,0,-1
184 222 m 1,8,-1
 393 222 l 1,9,-1
 289 532 l 1,10,-1
 184 222 l 1,8,-1
188.5 749.5 m 128,-1,12
 174 764 174 764 174 785 c 128,-1,13
 174 806 174 806 188.5 820.5 c 128,-1,14
 203 835 203 835 226 835 c 256,15,16
 249 835 249 835 264.5 820.5 c 128,-1,17
 280 806 280 806 280 785 c 128,-1,18
 280 764 280 764 264.5 749.5 c 128,-1,19
 249 735 249 735 226 735 c 256,20,11
 203 735 203 735 188.5 749.5 c 128,-1,12
357 749.5 m 128,-1,22
 342 764 342 764 342 785 c 128,-1,23
 342 806 342 806 357 820.5 c 128,-1,24
 372 835 372 835 394.5 835 c 128,-1,25
 417 835 417 835 432.5 820.5 c 128,-1,26
 448 806 448 806 448 785 c 128,-1,27
 448 764 448 764 432.5 749.5 c 128,-1,28
 417 735 417 735 394.5 735 c 128,-1,21
 372 735 372 735 357 749.5 c 128,-1,22
EndSplineSet
EndChar

StartChar: Egrave
Encoding: 104 200 106
Width: 564
GlyphClass: 2
Flags: HW
LayerCount: 2
Fore
SplineSet
100 629 m 1,0,-1
 487 629 l 1,1,-1
 487 561 l 1,2,-1
 179 561 l 1,3,-1
 179 350 l 1,4,-1
 469 350 l 1,5,-1
 469 283 l 1,6,-1
 179 283 l 1,7,-1
 179 69 l 1,8,-1
 487 69 l 1,9,-1
 487 0 l 1,10,-1
 100 0 l 1,11,-1
 100 629 l 1,0,-1
194 860 m 1,12,-1
 429 727 l 1,13,-1
 406 677 l 1,14,-1
 161 790 l 1,15,-1
 194 860 l 1,12,-1
EndSplineSet
EndChar

StartChar: Eacute
Encoding: 105 201 107
Width: 564
GlyphClass: 2
Flags: HW
LayerCount: 2
Fore
SplineSet
100 0 m 1,0,-1
 487 0 l 1,1,-1
 487 69 l 1,2,-1
 179 69 l 1,3,-1
 179 283 l 1,4,-1
 469 283 l 1,5,-1
 469 350 l 1,6,-1
 179 350 l 1,7,-1
 179 561 l 1,8,-1
 487 561 l 1,9,-1
 487 629 l 1,10,-1
 100 629 l 1,11,-1
 100 0 l 1,0,-1
427 790 m 1,12,-1
 183 677 l 1,13,-1
 160 727 l 1,14,-1
 395 860 l 1,15,-1
 427 790 l 1,12,-1
EndSplineSet
EndChar

StartChar: Ecircumflex
Encoding: 106 202 108
Width: 564
GlyphClass: 2
Flags: HW
LayerCount: 2
Fore
SplineSet
105 629 m 1,0,-1
 492 629 l 1,1,-1
 492 561 l 1,2,-1
 184 561 l 1,3,-1
 184 350 l 1,4,-1
 474 350 l 1,5,-1
 474 283 l 1,6,-1
 184 283 l 1,7,-1
 184 69 l 1,8,-1
 492 69 l 1,9,-1
 492 0 l 1,10,-1
 105 0 l 1,11,-1
 105 629 l 1,0,-1
479 716 m 1,12,-1
 429 677 l 1,13,-1
 300 785 l 1,14,-1
 170 677 l 1,15,-1
 120 716 l 1,16,-1
 300 872 l 1,17,-1
 479 716 l 1,12,-1
EndSplineSet
EndChar

StartChar: Edieresis
Encoding: 107 203 109
Width: 564
GlyphClass: 2
Flags: HW
LayerCount: 2
Fore
SplineSet
100 629 m 1,0,-1
 487 629 l 1,1,-1
 487 561 l 1,2,-1
 179 561 l 1,3,-1
 179 350 l 1,4,-1
 469 350 l 1,5,-1
 469 283 l 1,6,-1
 179 283 l 1,7,-1
 179 69 l 1,8,-1
 487 69 l 1,9,-1
 487 0 l 1,10,-1
 100 0 l 1,11,-1
 100 629 l 1,0,-1
172.5 749.5 m 128,-1,13
 158 764 158 764 158 785 c 128,-1,14
 158 806 158 806 172.5 820.5 c 128,-1,15
 187 835 187 835 210 835 c 256,16,17
 233 835 233 835 248.5 820.5 c 128,-1,18
 264 806 264 806 264 785 c 128,-1,19
 264 764 264 764 248.5 749.5 c 128,-1,20
 233 735 233 735 210 735 c 256,21,12
 187 735 187 735 172.5 749.5 c 128,-1,13
341 749.5 m 128,-1,23
 326 764 326 764 326 785 c 128,-1,24
 326 806 326 806 341 820.5 c 128,-1,25
 356 835 356 835 378.5 835 c 128,-1,26
 401 835 401 835 416.5 820.5 c 128,-1,27
 432 806 432 806 432 785 c 128,-1,28
 432 764 432 764 416.5 749.5 c 128,-1,29
 401 735 401 735 378.5 735 c 128,-1,22
 356 735 356 735 341 749.5 c 128,-1,23
EndSplineSet
EndChar

StartChar: Igrave
Encoding: 108 204 110
Width: 280
GlyphClass: 2
Flags: HW
LayerCount: 2
Fore
SplineSet
101 629 m 1,0,-1
 180 629 l 1,1,-1
 180 0 l 1,2,-1
 101 0 l 1,3,-1
 101 629 l 1,0,-1
40 860 m 1,4,-1
 275 727 l 1,5,-1
 252 677 l 1,6,-1
 7 790 l 1,7,-1
 40 860 l 1,4,-1
EndSplineSet
EndChar

StartChar: Iacute
Encoding: 109 205 111
Width: 280
GlyphClass: 2
Flags: HW
LayerCount: 2
Fore
SplineSet
101 0 m 1,0,-1
 180 0 l 1,1,-1
 180 629 l 1,2,-1
 101 629 l 1,3,-1
 101 0 l 1,0,-1
273 790 m 1,4,-1
 29 677 l 1,5,-1
 6 727 l 1,6,-1
 241 860 l 1,7,-1
 273 790 l 1,4,-1
EndSplineSet
EndChar

StartChar: Icircumflex
Encoding: 110 206 112
Width: 280
GlyphClass: 2
Flags: HW
LayerCount: 2
Fore
SplineSet
101 629 m 1,0,-1
 180 629 l 1,1,-1
 180 0 l 1,2,-1
 101 0 l 1,3,-1
 101 629 l 1,0,-1
320 716 m 1,4,-1
 270 677 l 1,5,-1
 141 785 l 1,6,-1
 11 677 l 1,7,-1
 -39 716 l 1,8,-1
 141 872 l 1,9,-1
 320 716 l 1,4,-1
EndSplineSet
EndChar

StartChar: Idieresis
Encoding: 111 207 113
Width: 280
GlyphClass: 2
Flags: HW
LayerCount: 2
Fore
SplineSet
101 629 m 1,0,-1
 180 629 l 1,1,-1
 180 0 l 1,2,-1
 101 0 l 1,3,-1
 101 629 l 1,0,-1
18.5 749.5 m 128,-1,5
 4 764 4 764 4 785 c 128,-1,6
 4 806 4 806 18.5 820.5 c 128,-1,7
 33 835 33 835 56 835 c 256,8,9
 79 835 79 835 94.5 820.5 c 128,-1,10
 110 806 110 806 110 785 c 128,-1,11
 110 764 110 764 94.5 749.5 c 128,-1,12
 79 735 79 735 56 735 c 256,13,4
 33 735 33 735 18.5 749.5 c 128,-1,5
187 749.5 m 128,-1,15
 172 764 172 764 172 785 c 128,-1,16
 172 806 172 806 187 820.5 c 128,-1,17
 202 835 202 835 224.5 835 c 128,-1,18
 247 835 247 835 262.5 820.5 c 128,-1,19
 278 806 278 806 278 785 c 128,-1,20
 278 764 278 764 262.5 749.5 c 128,-1,21
 247 735 247 735 224.5 735 c 128,-1,14
 202 735 202 735 187 749.5 c 128,-1,15
EndSplineSet
EndChar

StartChar: Ntilde
Encoding: 112 209 114
Width: 686
GlyphClass: 2
Flags: HW
LayerCount: 2
Fore
SplineSet
99 629 m 1,0,-1
 99 0 l 1,1,-1
 179 0 l 1,2,-1
 179 512 l 1,3,-1
 496 0 l 1,4,-1
 584 0 l 1,5,-1
 584 629 l 1,6,-1
 505 629 l 1,7,-1
 505 124 l 1,8,-1
 193 629 l 1,9,-1
 99 629 l 1,0,-1
274 770 m 0,10,11
 242 770 242 770 217 719 c 1,12,-1
 185 738 l 1,13,14
 197 789 197 789 220 815.5 c 128,-1,15
 243 842 243 842 269 842 c 128,-1,16
 295 842 295 842 328 825 c 0,17,18
 375 802 375 802 388.5 796 c 128,-1,19
 402 790 402 790 415 790 c 128,-1,20
 428 790 428 790 442 802.5 c 128,-1,21
 456 815 456 815 466 842 c 1,22,-1
 501 819 l 1,23,24
 490 771 490 771 465.5 745 c 128,-1,25
 441 719 441 719 420.5 719 c 128,-1,26
 400 719 400 719 383 725 c 128,-1,27
 366 731 366 731 336 746.5 c 128,-1,28
 306 762 306 762 295.5 766 c 128,-1,29
 285 770 285 770 274 770 c 0,10,11
EndSplineSet
EndChar

StartChar: Ograve
Encoding: 113 210 115
Width: 646
GlyphClass: 2
Flags: HW
LayerCount: 2
Fore
SplineSet
323 640 m 0,0,1
 445 640 445 640 520.5 556.5 c 128,-1,2
 596 473 596 473 596 313.5 c 128,-1,3
 596 154 596 154 521 71.5 c 128,-1,4
 446 -11 446 -11 323 -11 c 256,5,6
 200 -11 200 -11 125.5 72.5 c 128,-1,7
 51 156 51 156 51 314 c 0,8,9
 51 473 51 473 125.5 556.5 c 128,-1,10
 200 640 200 640 323 640 c 0,0,1
323 569 m 256,11,12
 235 569 235 569 184 503 c 128,-1,13
 133 437 133 437 133 313 c 128,-1,14
 133 189 133 189 184 125 c 128,-1,15
 235 61 235 61 323 61 c 256,16,17
 411 61 411 61 462.5 125 c 128,-1,18
 514 189 514 189 514 313 c 128,-1,19
 514 437 514 437 462.5 503 c 128,-1,20
 411 569 411 569 323 569 c 256,11,12
223 860 m 1,21,-1
 458 727 l 1,22,-1
 435 677 l 1,23,-1
 190 790 l 1,24,-1
 223 860 l 1,21,-1
EndSplineSet
EndChar

StartChar: Oacute
Encoding: 114 211 116
Width: 646
GlyphClass: 2
Flags: HW
LayerCount: 2
Fore
SplineSet
323 640 m 0,0,1
 200 640 200 640 125.5 556.5 c 128,-1,2
 51 473 51 473 51 314 c 0,3,4
 51 156 51 156 125.5 72.5 c 128,-1,5
 200 -11 200 -11 323 -11 c 256,6,7
 446 -11 446 -11 521 71.5 c 128,-1,8
 596 154 596 154 596 313.5 c 128,-1,9
 596 473 596 473 520.5 556.5 c 128,-1,10
 445 640 445 640 323 640 c 0,0,1
323 569 m 256,11,12
 411 569 411 569 462.5 503 c 128,-1,13
 514 437 514 437 514 313 c 128,-1,14
 514 189 514 189 462.5 125 c 128,-1,15
 411 61 411 61 323 61 c 256,16,17
 235 61 235 61 184 125 c 128,-1,18
 133 189 133 189 133 313 c 128,-1,19
 133 437 133 437 184 503 c 128,-1,20
 235 569 235 569 323 569 c 256,11,12
456 790 m 1,21,-1
 212 677 l 1,22,-1
 189 727 l 1,23,-1
 424 860 l 1,24,-1
 456 790 l 1,21,-1
EndSplineSet
EndChar

StartChar: Ocircumflex
Encoding: 115 212 117
Width: 646
GlyphClass: 2
Flags: HW
LayerCount: 2
Fore
SplineSet
323 640 m 0,0,1
 445 640 445 640 520.5 556.5 c 128,-1,2
 596 473 596 473 596 313.5 c 128,-1,3
 596 154 596 154 521 71.5 c 128,-1,4
 446 -11 446 -11 323 -11 c 256,5,6
 200 -11 200 -11 125.5 72.5 c 128,-1,7
 51 156 51 156 51 314 c 0,8,9
 51 473 51 473 125.5 556.5 c 128,-1,10
 200 640 200 640 323 640 c 0,0,1
323 569 m 256,11,12
 235 569 235 569 184 503 c 128,-1,13
 133 437 133 437 133 313 c 128,-1,14
 133 189 133 189 184 125 c 128,-1,15
 235 61 235 61 323 61 c 256,16,17
 411 61 411 61 462.5 125 c 128,-1,18
 514 189 514 189 514 313 c 128,-1,19
 514 437 514 437 462.5 503 c 128,-1,20
 411 569 411 569 323 569 c 256,11,12
502 716 m 1,21,-1
 452 677 l 1,22,-1
 323 785 l 1,23,-1
 193 677 l 1,24,-1
 143 716 l 1,25,-1
 323 872 l 1,26,-1
 502 716 l 1,21,-1
EndSplineSet
EndChar

StartChar: Otilde
Encoding: 116 213 118
Width: 646
GlyphClass: 2
Flags: HW
LayerCount: 2
Fore
SplineSet
323 640 m 0,0,1
 200 640 200 640 125.5 556.5 c 128,-1,2
 51 473 51 473 51 314 c 0,3,4
 51 156 51 156 125.5 72.5 c 128,-1,5
 200 -11 200 -11 323 -11 c 256,6,7
 446 -11 446 -11 521 71.5 c 128,-1,8
 596 154 596 154 596 313.5 c 128,-1,9
 596 473 596 473 520.5 556.5 c 128,-1,10
 445 640 445 640 323 640 c 0,0,1
323 569 m 256,11,12
 411 569 411 569 462.5 503 c 128,-1,13
 514 437 514 437 514 313 c 128,-1,14
 514 189 514 189 462.5 125 c 128,-1,15
 411 61 411 61 323 61 c 256,16,17
 235 61 235 61 184 125 c 128,-1,18
 133 189 133 189 133 313 c 128,-1,19
 133 437 133 437 184 503 c 128,-1,20
 235 569 235 569 323 569 c 256,11,12
254 770 m 0,21,22
 222 770 222 770 197 719 c 1,23,-1
 165 738 l 1,24,25
 177 789 177 789 200 815.5 c 128,-1,26
 223 842 223 842 249 842 c 128,-1,27
 275 842 275 842 308 825 c 0,28,29
 355 802 355 802 368.5 796 c 128,-1,30
 382 790 382 790 395 790 c 128,-1,31
 408 790 408 790 422 802.5 c 128,-1,32
 436 815 436 815 446 842 c 1,33,-1
 481 819 l 1,34,35
 470 771 470 771 445.5 745 c 128,-1,36
 421 719 421 719 400.5 719 c 128,-1,37
 380 719 380 719 363 725 c 128,-1,38
 346 731 346 731 316 746.5 c 128,-1,39
 286 762 286 762 275.5 766 c 128,-1,40
 265 770 265 770 254 770 c 0,21,22
EndSplineSet
EndChar

StartChar: Odieresis
Encoding: 117 214 119
Width: 646
GlyphClass: 2
Flags: HW
LayerCount: 2
Fore
SplineSet
323 640 m 0,0,1
 445 640 445 640 520.5 556.5 c 128,-1,2
 596 473 596 473 596 313.5 c 128,-1,3
 596 154 596 154 521 71.5 c 128,-1,4
 446 -11 446 -11 323 -11 c 256,5,6
 200 -11 200 -11 125.5 72.5 c 128,-1,7
 51 156 51 156 51 314 c 0,8,9
 51 473 51 473 125.5 556.5 c 128,-1,10
 200 640 200 640 323 640 c 0,0,1
323 569 m 256,11,12
 235 569 235 569 184 503 c 128,-1,13
 133 437 133 437 133 313 c 128,-1,14
 133 189 133 189 184 125 c 128,-1,15
 235 61 235 61 323 61 c 256,16,17
 411 61 411 61 462.5 125 c 128,-1,18
 514 189 514 189 514 313 c 128,-1,19
 514 437 514 437 462.5 503 c 128,-1,20
 411 569 411 569 323 569 c 256,11,12
200.5 749.5 m 128,-1,22
 186 764 186 764 186 785 c 128,-1,23
 186 806 186 806 200.5 820.5 c 128,-1,24
 215 835 215 835 238 835 c 256,25,26
 261 835 261 835 276.5 820.5 c 128,-1,27
 292 806 292 806 292 785 c 128,-1,28
 292 764 292 764 276.5 749.5 c 128,-1,29
 261 735 261 735 238 735 c 256,30,21
 215 735 215 735 200.5 749.5 c 128,-1,22
369 749.5 m 128,-1,32
 354 764 354 764 354 785 c 128,-1,33
 354 806 354 806 369 820.5 c 128,-1,34
 384 835 384 835 406.5 835 c 128,-1,35
 429 835 429 835 444.5 820.5 c 128,-1,36
 460 806 460 806 460 785 c 128,-1,37
 460 764 460 764 444.5 749.5 c 128,-1,38
 429 735 429 735 406.5 735 c 128,-1,31
 384 735 384 735 369 749.5 c 128,-1,32
EndSplineSet
EndChar

StartChar: Ugrave
Encoding: 118 217 120
Width: 654
GlyphClass: 2
Flags: HW
LayerCount: 2
Fore
SplineSet
166 629 m 1,0,-1
 166 227 l 2,1,2
 166 139 166 139 210 100 c 128,-1,3
 254 61 254 61 326 61 c 256,4,5
 398 61 398 61 442 100 c 128,-1,6
 486 139 486 139 486 227 c 2,7,-1
 486 629 l 1,8,-1
 565 629 l 1,9,-1
 565 227 l 2,10,11
 565 109 565 109 500 49 c 128,-1,12
 435 -11 435 -11 325.5 -11 c 128,-1,13
 216 -11 216 -11 151.5 49 c 128,-1,14
 87 109 87 109 87 227 c 2,15,-1
 87 629 l 1,16,-1
 166 629 l 1,0,-1
226 860 m 1,17,-1
 461 727 l 1,18,-1
 438 677 l 1,19,-1
 193 790 l 1,20,-1
 226 860 l 1,17,-1
EndSplineSet
EndChar

StartChar: Uacute
Encoding: 119 218 121
Width: 654
GlyphClass: 2
Flags: HW
LayerCount: 2
Fore
SplineSet
87 629 m 1,0,-1
 87 227 l 2,1,2
 87 109 87 109 151.5 49 c 128,-1,3
 216 -11 216 -11 325.5 -11 c 128,-1,4
 435 -11 435 -11 500 49 c 128,-1,5
 565 109 565 109 565 227 c 2,6,-1
 565 629 l 1,7,-1
 486 629 l 1,8,-1
 486 227 l 2,9,10
 486 139 486 139 442 100 c 128,-1,11
 398 61 398 61 326 61 c 256,12,13
 254 61 254 61 210 100 c 128,-1,14
 166 139 166 139 166 227 c 2,15,-1
 166 629 l 1,16,-1
 87 629 l 1,0,-1
459 790 m 1,17,-1
 215 677 l 1,18,-1
 192 727 l 1,19,-1
 427 860 l 1,20,-1
 459 790 l 1,17,-1
EndSplineSet
EndChar

StartChar: Ucircumflex
Encoding: 120 219 122
Width: 654
GlyphClass: 2
Flags: HW
LayerCount: 2
Fore
SplineSet
166 629 m 1,0,-1
 166 227 l 2,1,2
 166 139 166 139 210 100 c 128,-1,3
 254 61 254 61 326 61 c 256,4,5
 398 61 398 61 442 100 c 128,-1,6
 486 139 486 139 486 227 c 2,7,-1
 486 629 l 1,8,-1
 565 629 l 1,9,-1
 565 227 l 2,10,11
 565 109 565 109 500 49 c 128,-1,12
 435 -11 435 -11 325.5 -11 c 128,-1,13
 216 -11 216 -11 151.5 49 c 128,-1,14
 87 109 87 109 87 227 c 2,15,-1
 87 629 l 1,16,-1
 166 629 l 1,0,-1
505 716 m 1,17,-1
 455 677 l 1,18,-1
 326 785 l 1,19,-1
 196 677 l 1,20,-1
 146 716 l 1,21,-1
 326 872 l 1,22,-1
 505 716 l 1,17,-1
EndSplineSet
EndChar

StartChar: Udieresis
Encoding: 121 220 123
Width: 654
GlyphClass: 2
Flags: HW
LayerCount: 2
Fore
SplineSet
166 629 m 1,0,-1
 166 227 l 2,1,2
 166 139 166 139 210 100 c 128,-1,3
 254 61 254 61 326 61 c 256,4,5
 398 61 398 61 442 100 c 128,-1,6
 486 139 486 139 486 227 c 2,7,-1
 486 629 l 1,8,-1
 565 629 l 1,9,-1
 565 227 l 2,10,11
 565 109 565 109 500 49 c 128,-1,12
 435 -11 435 -11 325.5 -11 c 128,-1,13
 216 -11 216 -11 151.5 49 c 128,-1,14
 87 109 87 109 87 227 c 2,15,-1
 87 629 l 1,16,-1
 166 629 l 1,0,-1
203.5 749.5 m 128,-1,18
 189 764 189 764 189 785 c 128,-1,19
 189 806 189 806 203.5 820.5 c 128,-1,20
 218 835 218 835 241 835 c 256,21,22
 264 835 264 835 279.5 820.5 c 128,-1,23
 295 806 295 806 295 785 c 128,-1,24
 295 764 295 764 279.5 749.5 c 128,-1,25
 264 735 264 735 241 735 c 256,26,17
 218 735 218 735 203.5 749.5 c 128,-1,18
372 749.5 m 128,-1,28
 357 764 357 764 357 785 c 128,-1,29
 357 806 357 806 372 820.5 c 128,-1,30
 387 835 387 835 409.5 835 c 128,-1,31
 432 835 432 835 447.5 820.5 c 128,-1,32
 463 806 463 806 463 785 c 128,-1,33
 463 764 463 764 447.5 749.5 c 128,-1,34
 432 735 432 735 409.5 735 c 128,-1,27
 387 735 387 735 372 749.5 c 128,-1,28
EndSplineSet
EndChar

StartChar: agrave
Encoding: 122 224 124
Width: 551
GlyphClass: 2
Flags: HW
LayerCount: 2
Fore
SplineSet
387 310 m 2,0,1
 387 375 387 375 360 403 c 128,-1,2
 333 431 333 431 281.5 431 c 128,-1,3
 230 431 230 431 198.5 410.5 c 128,-1,4
 167 390 167 390 167 346 c 1,5,-1
 80 346 l 1,6,7
 80 456 80 456 198 482 c 0,8,9
 234 490 234 490 276 490 c 0,10,11
 365 490 365 490 415 445 c 128,-1,12
 465 400 465 400 465 308 c 2,13,-1
 465 0 l 1,14,-1
 397 0 l 1,15,-1
 389 80 l 1,16,17
 345 -11 345 -11 230 -11 c 0,18,19
 153 -11 153 -11 106.5 32 c 128,-1,20
 60 75 60 75 60 139 c 128,-1,21
 60 203 60 203 111.5 239 c 128,-1,22
 163 275 163 275 240 275 c 128,-1,23
 317 275 317 275 387 249 c 1,24,-1
 387 310 l 2,0,1
387 199 m 1,25,26
 316 219 316 219 263 219 c 128,-1,27
 210 219 210 219 177 200 c 128,-1,28
 144 181 144 181 144 140 c 0,29,30
 144 50 144 50 246 50 c 0,31,32
 304 50 304 50 345.5 91.5 c 128,-1,33
 387 133 387 133 387 199 c 1,25,26
182 731 m 1,34,-1
 417 598 l 1,35,-1
 394 548 l 1,36,-1
 149 661 l 1,37,-1
 182 731 l 1,34,-1
EndSplineSet
EndChar

StartChar: aacute
Encoding: 123 225 125
Width: 551
GlyphClass: 2
Flags: HW
LayerCount: 2
Fore
SplineSet
387 310 m 2,0,1
 387 375 387 375 360 403 c 128,-1,2
 333 431 333 431 281.5 431 c 128,-1,3
 230 431 230 431 198.5 410.5 c 128,-1,4
 167 390 167 390 167 346 c 1,5,-1
 80 346 l 1,6,7
 80 456 80 456 198 482 c 0,8,9
 234 490 234 490 276 490 c 0,10,11
 365 490 365 490 415 445 c 128,-1,12
 465 400 465 400 465 308 c 2,13,-1
 465 0 l 1,14,-1
 397 0 l 1,15,-1
 389 80 l 1,16,17
 345 -11 345 -11 230 -11 c 0,18,19
 153 -11 153 -11 106.5 32 c 128,-1,20
 60 75 60 75 60 139 c 128,-1,21
 60 203 60 203 111.5 239 c 128,-1,22
 163 275 163 275 240 275 c 128,-1,23
 317 275 317 275 387 249 c 1,24,-1
 387 310 l 2,0,1
387 199 m 1,25,26
 316 219 316 219 263 219 c 128,-1,27
 210 219 210 219 177 200 c 128,-1,28
 144 181 144 181 144 140 c 0,29,30
 144 50 144 50 246 50 c 0,31,32
 303 50 303 50 344 90 c 128,-1,33
 385 130 385 130 387 193 c 1,34,-1
 387 199 l 1,25,26
415 661 m 1,35,-1
 171 548 l 1,36,-1
 148 598 l 1,37,-1
 383 731 l 1,38,-1
 415 661 l 1,35,-1
EndSplineSet
EndChar

StartChar: acircumflex
Encoding: 124 226 126
Width: 551
GlyphClass: 2
Flags: HW
LayerCount: 2
Fore
SplineSet
387 310 m 2,0,1
 387 375 387 375 360 403 c 128,-1,2
 333 431 333 431 281.5 431 c 128,-1,3
 230 431 230 431 198.5 410.5 c 128,-1,4
 167 390 167 390 167 346 c 1,5,-1
 80 346 l 1,6,7
 80 456 80 456 198 482 c 0,8,9
 234 490 234 490 276 490 c 0,10,11
 365 490 365 490 415 445 c 128,-1,12
 465 400 465 400 465 308 c 2,13,-1
 465 0 l 1,14,-1
 397 0 l 1,15,-1
 389 80 l 1,16,17
 345 -11 345 -11 230 -11 c 0,18,19
 153 -11 153 -11 106.5 32 c 128,-1,20
 60 75 60 75 60 139 c 128,-1,21
 60 203 60 203 111.5 239 c 128,-1,22
 163 275 163 275 240 275 c 128,-1,23
 317 275 317 275 387 249 c 1,24,-1
 387 310 l 2,0,1
387 199 m 1,25,26
 316 219 316 219 263 219 c 128,-1,27
 210 219 210 219 177 200 c 128,-1,28
 144 181 144 181 144 140 c 0,29,30
 144 50 144 50 246 50 c 0,31,32
 304 50 304 50 345.5 91.5 c 128,-1,33
 387 133 387 133 387 199 c 1,25,26
461 587 m 1,34,-1
 411 548 l 1,35,-1
 282 656 l 1,36,-1
 152 548 l 1,37,-1
 102 587 l 1,38,-1
 282 743 l 1,39,-1
 461 587 l 1,34,-1
EndSplineSet
EndChar

StartChar: atilde
Encoding: 125 227 127
Width: 551
GlyphClass: 2
Flags: HW
LayerCount: 2
Fore
SplineSet
387 310 m 2,0,1
 387 375 387 375 360 403 c 128,-1,2
 333 431 333 431 281.5 431 c 128,-1,3
 230 431 230 431 198.5 410.5 c 128,-1,4
 167 390 167 390 167 346 c 1,5,-1
 80 346 l 1,6,7
 80 456 80 456 198 482 c 0,8,9
 234 490 234 490 276 490 c 0,10,11
 365 490 365 490 415 445 c 128,-1,12
 465 400 465 400 465 308 c 2,13,-1
 465 0 l 1,14,-1
 397 0 l 1,15,-1
 389 80 l 1,16,17
 345 -11 345 -11 230 -11 c 0,18,19
 153 -11 153 -11 106.5 32 c 128,-1,20
 60 75 60 75 60 139 c 128,-1,21
 60 203 60 203 111.5 239 c 128,-1,22
 163 275 163 275 240 275 c 128,-1,23
 317 275 317 275 387 249 c 1,24,-1
 387 310 l 2,0,1
387 199 m 1,25,26
 316 219 316 219 263 219 c 128,-1,27
 210 219 210 219 177 200 c 128,-1,28
 144 181 144 181 144 140 c 0,29,30
 144 50 144 50 246 50 c 0,31,32
 303 50 303 50 344 90 c 128,-1,33
 385 130 385 130 387 193 c 1,34,-1
 387 199 l 1,25,26
213 641 m 0,35,36
 181 641 181 641 156 590 c 1,37,-1
 124 609 l 1,38,39
 136 660 136 660 159 686.5 c 128,-1,40
 182 713 182 713 208 713 c 128,-1,41
 234 713 234 713 268 696 c 0,42,43
 314 673 314 673 327.5 667 c 128,-1,44
 341 661 341 661 354 661 c 128,-1,45
 367 661 367 661 381 673.5 c 128,-1,46
 395 686 395 686 405 713 c 1,47,-1
 440 690 l 1,48,49
 429 642 429 642 404.5 616 c 128,-1,50
 380 590 380 590 359.5 590 c 128,-1,51
 339 590 339 590 322 596 c 128,-1,52
 305 602 305 602 275 617.5 c 128,-1,53
 245 633 245 633 234.5 637 c 128,-1,54
 224 641 224 641 213 641 c 0,35,36
EndSplineSet
EndChar

StartChar: adieresis
Encoding: 126 228 128
Width: 551
GlyphClass: 2
Flags: HW
LayerCount: 2
Fore
SplineSet
387 310 m 2,0,1
 387 375 387 375 360 403 c 128,-1,2
 333 431 333 431 281.5 431 c 128,-1,3
 230 431 230 431 198.5 410.5 c 128,-1,4
 167 390 167 390 167 346 c 1,5,-1
 80 346 l 1,6,7
 80 456 80 456 198 482 c 0,8,9
 234 490 234 490 276 490 c 0,10,11
 365 490 365 490 415 445 c 128,-1,12
 465 400 465 400 465 308 c 2,13,-1
 465 0 l 1,14,-1
 397 0 l 1,15,-1
 389 80 l 1,16,17
 345 -11 345 -11 230 -11 c 0,18,19
 153 -11 153 -11 106.5 32 c 128,-1,20
 60 75 60 75 60 139 c 128,-1,21
 60 203 60 203 111.5 239 c 128,-1,22
 163 275 163 275 240 275 c 128,-1,23
 317 275 317 275 387 249 c 1,24,-1
 387 310 l 2,0,1
387 199 m 1,25,26
 316 219 316 219 263 219 c 128,-1,27
 210 219 210 219 177 200 c 128,-1,28
 144 181 144 181 144 140 c 0,29,30
 144 50 144 50 246 50 c 0,31,32
 304 50 304 50 345.5 91.5 c 128,-1,33
 387 133 387 133 387 199 c 1,25,26
159.5 619.5 m 128,-1,35
 145 634 145 634 145 655 c 128,-1,36
 145 676 145 676 159.5 690.5 c 128,-1,37
 174 705 174 705 197 705 c 256,38,39
 220 705 220 705 235.5 690.5 c 128,-1,40
 251 676 251 676 251 655 c 128,-1,41
 251 634 251 634 235.5 619.5 c 128,-1,42
 220 605 220 605 197 605 c 256,43,34
 174 605 174 605 159.5 619.5 c 128,-1,35
328 619.5 m 128,-1,45
 313 634 313 634 313 655 c 128,-1,46
 313 676 313 676 328 690.5 c 128,-1,47
 343 705 343 705 365.5 705 c 128,-1,48
 388 705 388 705 403.5 690.5 c 128,-1,49
 419 676 419 676 419 655 c 128,-1,50
 419 634 419 634 403.5 619.5 c 128,-1,51
 388 605 388 605 365.5 605 c 128,-1,44
 343 605 343 605 328 619.5 c 128,-1,45
EndSplineSet
EndChar

StartChar: egrave
Encoding: 127 232 129
Width: 514
GlyphClass: 2
Flags: HW
LayerCount: 2
Fore
SplineSet
267 53 m 0,0,1
 366 53 366 53 380 140 c 1,2,-1
 461 140 l 1,3,4
 450 68 450 68 397.5 28.5 c 128,-1,5
 345 -11 345 -11 267 -11 c 0,6,7
 171 -11 171 -11 111 57.5 c 128,-1,8
 51 126 51 126 51 240 c 128,-1,9
 51 354 51 354 111.5 422 c 128,-1,10
 172 490 172 490 272.5 490 c 128,-1,11
 373 490 373 490 422.5 412 c 128,-1,12
 472 334 472 334 457 222 c 1,13,-1
 130 222 l 1,14,15
 130 148 130 148 166 100.5 c 128,-1,16
 202 53 202 53 267 53 c 0,0,1
324 415 m 0,17,18
 302 427 302 427 270 427 c 0,19,20
 208 427 208 427 172.5 385.5 c 128,-1,21
 137 344 137 344 131 282 c 1,22,-1
 386 282 l 1,23,24
 386 382 386 382 324 415 c 0,17,18
159 736 m 1,25,-1
 394 603 l 1,26,-1
 371 553 l 1,27,-1
 126 666 l 1,28,-1
 159 736 l 1,25,-1
EndSplineSet
EndChar

StartChar: eacute
Encoding: 128 233 130
Width: 514
GlyphClass: 2
Flags: HW
LayerCount: 2
Fore
SplineSet
380 140 m 1,0,1
 366 53 366 53 267 53 c 0,2,3
 202 53 202 53 166 100.5 c 128,-1,4
 130 148 130 148 130 222 c 1,5,-1
 457 222 l 1,6,7
 472 334 472 334 422.5 412 c 128,-1,8
 373 490 373 490 272.5 490 c 128,-1,9
 172 490 172 490 111.5 422 c 128,-1,10
 51 354 51 354 51 240 c 128,-1,11
 51 126 51 126 111 57.5 c 128,-1,12
 171 -11 171 -11 267 -11 c 0,13,14
 345 -11 345 -11 397.5 28.5 c 128,-1,15
 450 68 450 68 461 140 c 1,16,-1
 380 140 l 1,0,1
358.5 385.5 m 128,-1,18
 386 344 386 344 386 282 c 1,19,-1
 131 282 l 1,20,21
 137 344 137 344 172.5 385.5 c 128,-1,22
 208 427 208 427 269.5 427 c 128,-1,17
 331 427 331 427 358.5 385.5 c 128,-1,18
392 666 m 1,23,-1
 148 553 l 1,24,-1
 125 603 l 1,25,-1
 360 736 l 1,26,-1
 392 666 l 1,23,-1
EndSplineSet
EndChar

StartChar: ecircumflex
Encoding: 129 234 131
Width: 514
GlyphClass: 2
Flags: HW
LayerCount: 2
Fore
SplineSet
270 53 m 0,0,1
 369 53 369 53 383 140 c 1,2,-1
 464 140 l 1,3,4
 453 68 453 68 400.5 28.5 c 128,-1,5
 348 -11 348 -11 270 -11 c 0,6,7
 174 -11 174 -11 114 57.5 c 128,-1,8
 54 126 54 126 54 240 c 128,-1,9
 54 354 54 354 114.5 422 c 128,-1,10
 175 490 175 490 275.5 490 c 128,-1,11
 376 490 376 490 425.5 412 c 128,-1,12
 475 334 475 334 460 222 c 1,13,-1
 133 222 l 1,14,15
 133 148 133 148 169 100.5 c 128,-1,16
 205 53 205 53 270 53 c 0,0,1
328 415 m 0,17,18
 305 427 305 427 272 427 c 0,19,20
 211 427 211 427 175.5 385.5 c 128,-1,21
 140 344 140 344 134 282 c 1,22,-1
 389 282 l 1,23,24
 389 382 389 382 328 415 c 0,17,18
442 592 m 1,25,-1
 392 553 l 1,26,-1
 263 661 l 1,27,-1
 133 553 l 1,28,-1
 83 592 l 1,29,-1
 263 748 l 1,30,-1
 442 592 l 1,25,-1
EndSplineSet
EndChar

StartChar: edieresis
Encoding: 130 235 132
Width: 514
GlyphClass: 2
Flags: HW
LayerCount: 2
Fore
SplineSet
267 53 m 0,0,1
 366 53 366 53 380 140 c 1,2,-1
 461 140 l 1,3,4
 450 68 450 68 397.5 28.5 c 128,-1,5
 345 -11 345 -11 267 -11 c 0,6,7
 171 -11 171 -11 111 57.5 c 128,-1,8
 51 126 51 126 51 240 c 128,-1,9
 51 354 51 354 111.5 422 c 128,-1,10
 172 490 172 490 272.5 490 c 128,-1,11
 373 490 373 490 422.5 412 c 128,-1,12
 472 334 472 334 457 222 c 1,13,-1
 130 222 l 1,14,15
 130 148 130 148 166 100.5 c 128,-1,16
 202 53 202 53 267 53 c 0,0,1
324 415 m 0,17,18
 302 427 302 427 270 427 c 0,19,20
 208 427 208 427 172.5 385.5 c 128,-1,21
 137 344 137 344 131 282 c 1,22,-1
 386 282 l 1,23,24
 386 382 386 382 324 415 c 0,17,18
137.5 619.5 m 128,-1,26
 123 634 123 634 123 655 c 128,-1,27
 123 676 123 676 137.5 690.5 c 128,-1,28
 152 705 152 705 175 705 c 256,29,30
 198 705 198 705 213.5 690.5 c 128,-1,31
 229 676 229 676 229 655 c 128,-1,32
 229 634 229 634 213.5 619.5 c 128,-1,33
 198 605 198 605 175 605 c 256,34,25
 152 605 152 605 137.5 619.5 c 128,-1,26
306 619.5 m 128,-1,36
 291 634 291 634 291 655 c 128,-1,37
 291 676 291 676 306 690.5 c 128,-1,38
 321 705 321 705 343.5 705 c 128,-1,39
 366 705 366 705 381.5 690.5 c 128,-1,40
 397 676 397 676 397 655 c 128,-1,41
 397 634 397 634 381.5 619.5 c 128,-1,42
 366 605 366 605 343.5 605 c 128,-1,35
 321 605 321 605 306 619.5 c 128,-1,36
EndSplineSet
EndChar

StartChar: igrave
Encoding: 131 236 133
Width: 299
GlyphClass: 2
Flags: HW
LayerCount: 2
Fore
SplineSet
106 479 m 1,0,-1
 185 479 l 1,1,-1
 185 0 l 1,2,-1
 106 0 l 1,3,-1
 106 479 l 1,0,-1
45 731 m 1,4,-1
 280 598 l 1,5,-1
 257 548 l 1,6,-1
 12 661 l 1,7,-1
 45 731 l 1,4,-1
EndSplineSet
EndChar

StartChar: iacute
Encoding: 132 237 134
Width: 299
GlyphClass: 2
Flags: HW
LayerCount: 2
Fore
SplineSet
106 0 m 1,0,-1
 185 0 l 1,1,-1
 185 479 l 1,2,-1
 106 479 l 1,3,-1
 106 0 l 1,0,-1
278 661 m 1,4,-1
 34 548 l 1,5,-1
 11 598 l 1,6,-1
 246 731 l 1,7,-1
 278 661 l 1,4,-1
EndSplineSet
EndChar

StartChar: icircumflex
Encoding: 133 238 135
Width: 299
GlyphClass: 2
Flags: HW
LayerCount: 2
Fore
SplineSet
106 479 m 1,0,-1
 185 479 l 1,1,-1
 185 0 l 1,2,-1
 106 0 l 1,3,-1
 106 479 l 1,0,-1
325 587 m 1,4,-1
 275 548 l 1,5,-1
 146 656 l 1,6,-1
 16 548 l 1,7,-1
 -34 587 l 1,8,-1
 146 743 l 1,9,-1
 325 587 l 1,4,-1
EndSplineSet
EndChar

StartChar: idieresis
Encoding: 134 239 136
Width: 299
GlyphClass: 2
Flags: HW
LayerCount: 2
Fore
SplineSet
106 479 m 1,0,-1
 185 479 l 1,1,-1
 185 0 l 1,2,-1
 106 0 l 1,3,-1
 106 479 l 1,0,-1
23.5 619.5 m 128,-1,5
 9 634 9 634 9 655 c 128,-1,6
 9 676 9 676 23.5 690.5 c 128,-1,7
 38 705 38 705 61 705 c 256,8,9
 84 705 84 705 99.5 690.5 c 128,-1,10
 115 676 115 676 115 655 c 128,-1,11
 115 634 115 634 99.5 619.5 c 128,-1,12
 84 605 84 605 61 605 c 256,13,4
 38 605 38 605 23.5 619.5 c 128,-1,5
192 619.5 m 128,-1,15
 177 634 177 634 177 655 c 128,-1,16
 177 676 177 676 192 690.5 c 128,-1,17
 207 705 207 705 229.5 705 c 128,-1,18
 252 705 252 705 267.5 690.5 c 128,-1,19
 283 676 283 676 283 655 c 128,-1,20
 283 634 283 634 267.5 619.5 c 128,-1,21
 252 605 252 605 229.5 605 c 128,-1,14
 207 605 207 605 192 619.5 c 128,-1,15
EndSplineSet
EndChar

StartChar: ntilde
Encoding: 135 241 137
Width: 604
GlyphClass: 2
Flags: HW
LayerCount: 2
Fore
SplineSet
339 490 m 0,0,1
 225 490 225 490 178 386 c 1,2,-1
 169 478 l 1,3,-1
 101 478 l 1,4,-1
 101 0 l 1,5,-1
 180 0 l 1,6,-1
 180 235 l 1,7,8
 182 322 182 322 219 371 c 128,-1,9
 256 420 256 420 316 420 c 128,-1,10
 376 420 376 420 408.5 385 c 128,-1,11
 441 350 441 350 441 281 c 2,12,-1
 441 0 l 1,13,-1
 519 0 l 1,14,-1
 519 281 l 2,15,16
 519 378 519 378 471.5 434 c 128,-1,17
 424 490 424 490 339 490 c 0,0,1
237 641 m 0,18,19
 205 641 205 641 180 590 c 1,20,-1
 148 609 l 1,21,22
 160 660 160 660 183 686.5 c 128,-1,23
 206 713 206 713 232 713 c 128,-1,24
 258 713 258 713 292 696 c 0,25,26
 338 673 338 673 351.5 667 c 128,-1,27
 365 661 365 661 378 661 c 128,-1,28
 391 661 391 661 405 673.5 c 128,-1,29
 419 686 419 686 429 713 c 1,30,-1
 464 690 l 1,31,32
 453 642 453 642 428.5 616 c 128,-1,33
 404 590 404 590 383.5 590 c 128,-1,34
 363 590 363 590 346 596 c 128,-1,35
 329 602 329 602 299 617.5 c 128,-1,36
 269 633 269 633 258.5 637 c 128,-1,37
 248 641 248 641 237 641 c 0,18,19
EndSplineSet
EndChar

StartChar: ograve
Encoding: 136 242 138
Width: 547
GlyphClass: 2
Flags: HW
LayerCount: 2
Fore
SplineSet
274 490 m 256,0,1
 374 490 374 490 435.5 425 c 128,-1,2
 497 360 497 360 497 239 c 0,3,4
 497 119 497 119 435.5 54 c 128,-1,5
 374 -11 374 -11 274 -11 c 256,6,7
 174 -11 174 -11 112.5 54 c 128,-1,8
 51 119 51 119 51 239 c 0,9,10
 51 360 51 360 112.5 425 c 128,-1,11
 174 490 174 490 274 490 c 256,0,1
381 373.5 m 128,-1,13
 345 422 345 422 275.5 422 c 128,-1,14
 206 422 206 422 169 373.5 c 128,-1,15
 132 325 132 325 132 239.5 c 128,-1,16
 132 154 132 154 167 105.5 c 128,-1,17
 202 57 202 57 271.5 57 c 128,-1,18
 341 57 341 57 379 105.5 c 128,-1,19
 417 154 417 154 417 239.5 c 128,-1,12
 417 325 417 325 381 373.5 c 128,-1,13
174 731 m 1,20,-1
 409 598 l 1,21,-1
 386 548 l 1,22,-1
 141 661 l 1,23,-1
 174 731 l 1,20,-1
EndSplineSet
EndChar

StartChar: oacute
Encoding: 137 243 139
Width: 547
GlyphClass: 2
Flags: HW
LayerCount: 2
Fore
SplineSet
274 490 m 256,0,1
 174 490 174 490 112.5 425 c 128,-1,2
 51 360 51 360 51 239 c 0,3,4
 51 119 51 119 112.5 54 c 128,-1,5
 174 -11 174 -11 274 -11 c 256,6,7
 374 -11 374 -11 435.5 54 c 128,-1,8
 497 119 497 119 497 239 c 0,9,10
 497 360 497 360 435.5 425 c 128,-1,11
 374 490 374 490 274 490 c 256,0,1
169 373.5 m 128,-1,13
 206 422 206 422 275.5 422 c 128,-1,14
 345 422 345 422 381 373.5 c 128,-1,15
 417 325 417 325 417 239.5 c 128,-1,16
 417 154 417 154 379 105.5 c 128,-1,17
 341 57 341 57 271.5 57 c 128,-1,18
 202 57 202 57 167 105.5 c 128,-1,19
 132 154 132 154 132 239.5 c 128,-1,12
 132 325 132 325 169 373.5 c 128,-1,13
407 661 m 1,20,-1
 163 548 l 1,21,-1
 140 598 l 1,22,-1
 375 731 l 1,23,-1
 407 661 l 1,20,-1
EndSplineSet
EndChar

StartChar: ocircumflex
Encoding: 138 244 140
Width: 547
GlyphClass: 2
Flags: HW
LayerCount: 2
Fore
SplineSet
274 490 m 256,0,1
 374 490 374 490 435.5 425 c 128,-1,2
 497 360 497 360 497 239 c 0,3,4
 497 119 497 119 435.5 54 c 128,-1,5
 374 -11 374 -11 274 -11 c 256,6,7
 174 -11 174 -11 112.5 54 c 128,-1,8
 51 119 51 119 51 239 c 0,9,10
 51 360 51 360 112.5 425 c 128,-1,11
 174 490 174 490 274 490 c 256,0,1
381 373.5 m 128,-1,13
 345 422 345 422 275.5 422 c 128,-1,14
 206 422 206 422 169 373.5 c 128,-1,15
 132 325 132 325 132 239.5 c 128,-1,16
 132 154 132 154 167 105.5 c 128,-1,17
 202 57 202 57 271.5 57 c 128,-1,18
 341 57 341 57 379 105.5 c 128,-1,19
 417 154 417 154 417 239.5 c 128,-1,12
 417 325 417 325 381 373.5 c 128,-1,13
453 587 m 1,20,-1
 403 548 l 1,21,-1
 274 656 l 1,22,-1
 144 548 l 1,23,-1
 94 587 l 1,24,-1
 274 743 l 1,25,-1
 453 587 l 1,20,-1
EndSplineSet
EndChar

StartChar: otilde
Encoding: 139 245 141
Width: 547
GlyphClass: 2
Flags: HW
LayerCount: 2
Fore
SplineSet
274 490 m 256,0,1
 174 490 174 490 112.5 425 c 128,-1,2
 51 360 51 360 51 239 c 0,3,4
 51 119 51 119 112.5 54 c 128,-1,5
 174 -11 174 -11 274 -11 c 256,6,7
 374 -11 374 -11 435.5 54 c 128,-1,8
 497 119 497 119 497 239 c 0,9,10
 497 360 497 360 435.5 425 c 128,-1,11
 374 490 374 490 274 490 c 256,0,1
169 373.5 m 128,-1,13
 206 422 206 422 275.5 422 c 128,-1,14
 345 422 345 422 381 373.5 c 128,-1,15
 417 325 417 325 417 239.5 c 128,-1,16
 417 154 417 154 379 105.5 c 128,-1,17
 341 57 341 57 271.5 57 c 128,-1,18
 202 57 202 57 167 105.5 c 128,-1,19
 132 154 132 154 132 239.5 c 128,-1,12
 132 325 132 325 169 373.5 c 128,-1,13
206 641 m 0,20,21
 174 641 174 641 149 590 c 1,22,-1
 117 609 l 1,23,24
 129 660 129 660 152 686.5 c 128,-1,25
 175 713 175 713 201 713 c 128,-1,26
 227 713 227 713 260 696 c 0,27,28
 307 673 307 673 320.5 667 c 128,-1,29
 334 661 334 661 347 661 c 128,-1,30
 360 661 360 661 374 673.5 c 128,-1,31
 388 686 388 686 398 713 c 1,32,-1
 433 690 l 1,33,34
 422 642 422 642 397.5 616 c 128,-1,35
 373 590 373 590 352.5 590 c 128,-1,36
 332 590 332 590 315 596 c 128,-1,37
 298 602 298 602 268 617.5 c 128,-1,38
 238 633 238 633 227.5 637 c 128,-1,39
 217 641 217 641 206 641 c 0,20,21
EndSplineSet
EndChar

StartChar: odieresis
Encoding: 140 246 142
Width: 547
GlyphClass: 2
Flags: HW
LayerCount: 2
Fore
SplineSet
274 490 m 256,0,1
 374 490 374 490 435.5 425 c 128,-1,2
 497 360 497 360 497 239 c 0,3,4
 497 119 497 119 435.5 54 c 128,-1,5
 374 -11 374 -11 274 -11 c 256,6,7
 174 -11 174 -11 112.5 54 c 128,-1,8
 51 119 51 119 51 239 c 0,9,10
 51 360 51 360 112.5 425 c 128,-1,11
 174 490 174 490 274 490 c 256,0,1
381 373.5 m 128,-1,13
 345 422 345 422 275.5 422 c 128,-1,14
 206 422 206 422 169 373.5 c 128,-1,15
 132 325 132 325 132 239.5 c 128,-1,16
 132 154 132 154 167 105.5 c 128,-1,17
 202 57 202 57 271.5 57 c 128,-1,18
 341 57 341 57 379 105.5 c 128,-1,19
 417 154 417 154 417 239.5 c 128,-1,12
 417 325 417 325 381 373.5 c 128,-1,13
152.5 619.5 m 128,-1,21
 138 634 138 634 138 655 c 128,-1,22
 138 676 138 676 152.5 690.5 c 128,-1,23
 167 705 167 705 190 705 c 256,24,25
 213 705 213 705 228.5 690.5 c 128,-1,26
 244 676 244 676 244 655 c 128,-1,27
 244 634 244 634 228.5 619.5 c 128,-1,28
 213 605 213 605 190 605 c 256,29,20
 167 605 167 605 152.5 619.5 c 128,-1,21
321 619.5 m 128,-1,31
 306 634 306 634 306 655 c 128,-1,32
 306 676 306 676 321 690.5 c 128,-1,33
 336 705 336 705 358.5 705 c 128,-1,34
 381 705 381 705 396.5 690.5 c 128,-1,35
 412 676 412 676 412 655 c 128,-1,36
 412 634 412 634 396.5 619.5 c 128,-1,37
 381 605 381 605 358.5 605 c 128,-1,30
 336 605 336 605 321 619.5 c 128,-1,31
EndSplineSet
EndChar

StartChar: ugrave
Encoding: 141 249 143
Width: 606
GlyphClass: 2
Flags: HW
LayerCount: 2
Fore
SplineSet
426 95 m 1,0,1
 377 -9 377 -9 267 -9 c 0,2,3
 186 -9 186 -9 136.5 36 c 128,-1,4
 87 81 87 81 87 175 c 2,5,-1
 87 479 l 1,6,-1
 166 479 l 1,7,-1
 166 181 l 2,8,9
 166 60 166 60 278 60 c 0,10,11
 343 60 343 60 383.5 110 c 128,-1,12
 424 160 424 160 426 238 c 1,13,-1
 426 479 l 1,14,-1
 505 479 l 1,15,-1
 505 0 l 1,16,-1
 426 0 l 1,17,-1
 426 95 l 1,0,1
200 769 m 1,18,-1
 435 636 l 1,19,-1
 412 586 l 1,20,-1
 167 699 l 1,21,-1
 200 769 l 1,18,-1
EndSplineSet
EndChar

StartChar: uacute
Encoding: 142 250 144
Width: 606
GlyphClass: 2
Flags: HW
LayerCount: 2
Fore
SplineSet
267 -9 m 0,0,1
 377 -9 377 -9 426 95 c 1,2,-1
 426 0 l 1,3,-1
 505 0 l 1,4,-1
 505 479 l 1,5,-1
 426 479 l 1,6,-1
 426 246 l 2,7,8
 426 163 426 163 385 111.5 c 128,-1,9
 344 60 344 60 278 60 c 0,10,11
 166 60 166 60 166 181 c 2,12,-1
 166 479 l 1,13,-1
 87 479 l 1,14,-1
 87 175 l 2,15,16
 87 81 87 81 136.5 36 c 128,-1,17
 186 -9 186 -9 267 -9 c 0,0,1
433 699 m 1,18,-1
 189 586 l 1,19,-1
 166 636 l 1,20,-1
 401 769 l 1,21,-1
 433 699 l 1,18,-1
EndSplineSet
EndChar

StartChar: ucircumflex
Encoding: 143 251 145
Width: 606
GlyphClass: 2
Flags: HW
LayerCount: 2
Fore
SplineSet
426 95 m 1,0,1
 377 -9 377 -9 267 -9 c 0,2,3
 186 -9 186 -9 136.5 36 c 128,-1,4
 87 81 87 81 87 175 c 2,5,-1
 87 479 l 1,6,-1
 166 479 l 1,7,-1
 166 181 l 2,8,9
 166 60 166 60 278 60 c 0,10,11
 343 60 343 60 383.5 110 c 128,-1,12
 424 160 424 160 426 238 c 1,13,-1
 426 479 l 1,14,-1
 505 479 l 1,15,-1
 505 0 l 1,16,-1
 426 0 l 1,17,-1
 426 95 l 1,0,1
480 625 m 1,18,-1
 430 586 l 1,19,-1
 301 694 l 1,20,-1
 171 586 l 1,21,-1
 121 625 l 1,22,-1
 301 781 l 1,23,-1
 480 625 l 1,18,-1
EndSplineSet
EndChar

StartChar: udieresis
Encoding: 144 252 146
Width: 606
GlyphClass: 2
Flags: HW
LayerCount: 2
Fore
SplineSet
426 95 m 1,0,1
 377 -9 377 -9 267 -9 c 0,2,3
 186 -9 186 -9 136.5 36 c 128,-1,4
 87 81 87 81 87 175 c 2,5,-1
 87 479 l 1,6,-1
 166 479 l 1,7,-1
 166 181 l 2,8,9
 166 60 166 60 278 60 c 0,10,11
 343 60 343 60 383.5 110 c 128,-1,12
 424 160 424 160 426 238 c 1,13,-1
 426 479 l 1,14,-1
 505 479 l 1,15,-1
 505 0 l 1,16,-1
 426 0 l 1,17,-1
 426 95 l 1,0,1
178.5 619.5 m 128,-1,19
 164 634 164 634 164 655 c 128,-1,20
 164 676 164 676 178.5 690.5 c 128,-1,21
 193 705 193 705 216 705 c 256,22,23
 239 705 239 705 254.5 690.5 c 128,-1,24
 270 676 270 676 270 655 c 128,-1,25
 270 634 270 634 254.5 619.5 c 128,-1,26
 239 605 239 605 216 605 c 256,27,18
 193 605 193 605 178.5 619.5 c 128,-1,19
347 619.5 m 128,-1,29
 332 634 332 634 332 655 c 128,-1,30
 332 676 332 676 347 690.5 c 128,-1,31
 362 705 362 705 384.5 705 c 128,-1,32
 407 705 407 705 422.5 690.5 c 128,-1,33
 438 676 438 676 438 655 c 128,-1,34
 438 634 438 634 422.5 619.5 c 128,-1,35
 407 605 407 605 384.5 605 c 128,-1,28
 362 605 362 605 347 619.5 c 128,-1,29
EndSplineSet
EndChar

StartChar: dotlessi
Encoding: 145 305 147
Width: 280
GlyphClass: 2
Flags: HW
LayerCount: 2
Fore
SplineSet
101 479 m 1,0,-1
 180 479 l 1,1,-1
 180 0 l 1,2,-1
 101 0 l 1,3,-1
 101 479 l 1,0,-1
EndSplineSet
EndChar

StartChar: apostrophe
Encoding: 146 700 148
Width: 184
GlyphClass: 2
Flags: HW
LayerCount: 2
Fore
SplineSet
73 538 m 128,-1,1
 58 551 58 551 58 573 c 128,-1,2
 58 595 58 595 73.5 610 c 128,-1,3
 89 625 89 625 117.5 625 c 128,-1,4
 146 625 146 625 165 602.5 c 128,-1,5
 184 580 184 580 184 546 c 128,-1,6
 184 512 184 512 162 476.5 c 128,-1,7
 140 441 140 441 95 419 c 1,8,-1
 36 448 l 1,9,10
 98 478 98 478 111 523 c 1,11,0
 88 525 88 525 73 538 c 128,-1,1
EndSplineSet
EndChar

StartChar: circumflex
Encoding: 147 710 149
Width: 407
GlyphClass: 2
Flags: HW
LayerCount: 2
Fore
SplineSet
383 716 m 1,0,-1
 333 677 l 1,1,-1
 204 785 l 1,2,-1
 74 677 l 1,3,-1
 24 716 l 1,4,-1
 204 872 l 1,5,-1
 383 716 l 1,0,-1
EndSplineSet
EndChar

StartChar: tilde
Encoding: 148 732 150
Width: 366
GlyphClass: 2
Flags: HW
LayerCount: 2
Fore
SplineSet
112 770 m 0,0,1
 80 770 80 770 55 719 c 1,2,-1
 23 738 l 1,3,4
 35 789 35 789 58 815.5 c 128,-1,5
 81 842 81 842 107 842 c 128,-1,6
 133 842 133 842 166 825 c 0,7,8
 213 802 213 802 226.5 796 c 128,-1,9
 240 790 240 790 253 790 c 128,-1,10
 266 790 266 790 280 802.5 c 128,-1,11
 294 815 294 815 304 842 c 1,12,-1
 339 819 l 1,13,14
 328 771 328 771 303.5 745 c 128,-1,15
 279 719 279 719 258.5 719 c 128,-1,16
 238 719 238 719 221 725 c 128,-1,17
 204 731 204 731 174 746.5 c 128,-1,18
 144 762 144 762 133.5 766 c 128,-1,19
 123 770 123 770 112 770 c 0,0,1
EndSplineSet
EndChar

StartChar: endash
Encoding: 149 8211 151
Width: 474
GlyphClass: 2
Flags: HW
LayerCount: 2
Fore
SplineSet
55 325 m 1,0,-1
 419 325 l 1,1,-1
 419 257 l 1,2,-1
 55 257 l 1,3,-1
 55 325 l 1,0,-1
EndSplineSet
EndChar

StartChar: emdash
Encoding: 150 8212 152
Width: 726
GlyphClass: 2
Flags: HW
LayerCount: 2
Fore
SplineSet
55 325 m 1,0,-1
 671 325 l 1,1,-1
 671 257 l 1,2,-1
 55 257 l 1,3,-1
 55 325 l 1,0,-1
EndSplineSet
EndChar

StartChar: quoteleft
Encoding: 151 8216 153
Width: 214
GlyphClass: 2
Flags: HW
LayerCount: 2
Fore
SplineSet
146.5 433.5 m 128,-1,1
 131 418 131 418 103 418 c 128,-1,2
 75 418 75 418 55.5 441 c 128,-1,3
 36 464 36 464 36 498.5 c 128,-1,4
 36 533 36 533 59.5 568.5 c 128,-1,5
 83 604 83 604 128 626 c 1,6,-1
 184 597 l 1,7,8
 122 565 122 565 109 521 c 1,9,10
 132 519 132 519 147 506 c 128,-1,11
 162 493 162 493 162 471 c 256,12,0
 162 449 162 449 146.5 433.5 c 128,-1,1
EndSplineSet
EndChar

StartChar: quoteright
Encoding: 152 8217 154
Width: 214
GlyphClass: 2
Flags: HW
LayerCount: 2
Fore
SplineSet
52 611 m 128,-1,1
 68 626 68 626 96.5 626 c 128,-1,2
 125 626 125 626 143.5 604 c 128,-1,3
 162 582 162 582 162 547 c 256,4,5
 162 512 162 512 138.5 476.5 c 128,-1,6
 115 441 115 441 71 418 c 1,7,-1
 15 448 l 1,8,9
 77 480 77 480 90 524 c 1,10,11
 67 526 67 526 51.5 539 c 128,-1,12
 36 552 36 552 36 574 c 256,13,0
 36 596 36 596 52 611 c 128,-1,1
EndSplineSet
EndChar

StartChar: rupeesymbol
Encoding: 153 8377 155
Width: 581
GlyphClass: 2
Flags: HW
LayerCount: 2
Fore
SplineSet
92 629 m 1,0,-1
 508 629 l 1,1,-1
 508 580 l 1,2,-1
 325 580 l 1,3,4
 394 544 394 544 409 477 c 1,5,-1
 508 477 l 1,6,-1
 508 429 l 1,7,-1
 414 429 l 1,8,9
 407 314 407 314 295 270 c 0,10,11
 255 255 255 255 200 250 c 1,12,-1
 474 0 l 1,13,-1
 362 0 l 1,14,-1
 92 248 l 1,15,-1
 92 296 l 1,16,-1
 153 296 l 2,17,18
 240 296 240 296 282 334 c 128,-1,19
 324 372 324 372 327 429 c 1,20,-1
 92 429 l 1,21,-1
 92 477 l 1,22,-1
 323 477 l 1,23,24
 312 523 312 523 270.5 551.5 c 128,-1,25
 229 580 229 580 153 580 c 2,26,-1
 92 580 l 1,27,-1
 92 629 l 1,0,-1
EndSplineSet
EndChar

StartChar: minus
Encoding: 154 8722 156
Width: 488
GlyphClass: 2
Flags: HW
LayerCount: 2
Fore
SplineSet
409 325 m 1,0,-1
 409 258 l 1,1,-1
 79 258 l 1,2,-1
 79 325 l 1,3,-1
 409 325 l 1,0,-1
EndSplineSet
EndChar

StartChar: zero.propold
Encoding: 158 -1 157
Width: 531
GlyphClass: 2
Flags: HW
LayerCount: 2
Fore
SplineSet
265.5 551 m 128,-1,1
 364 551 364 551 422.5 478 c 128,-1,2
 481 405 481 405 481 270 c 256,3,4
 481 135 481 135 422.5 62 c 128,-1,5
 364 -11 364 -11 265.5 -11 c 128,-1,6
 167 -11 167 -11 109 61.5 c 128,-1,7
 51 134 51 134 51 270 c 256,8,9
 51 406 51 406 109 478.5 c 128,-1,0
 167 551 167 551 265.5 551 c 128,-1,1
400 270 m 0,10,11
 400 482 400 482 266 482 c 256,12,13
 132 482 132 482 132 270 c 0,14,15
 132 59 132 59 266 59 c 256,16,17
 400 59 400 59 400 270 c 0,10,11
EndSplineSet
EndChar

StartChar: one.propold
Encoding: 159 -1 158
Width: 331
GlyphClass: 2
Flags: HW
LayerCount: 2
Fore
SplineSet
49 489 m 1,0,1
 118 500 118 500 166 541 c 1,2,-1
 230 541 l 1,3,-1
 230 0 l 1,4,-1
 152 0 l 1,5,-1
 152 446 l 1,6,7
 101 414 101 414 49 412 c 1,8,-1
 49 489 l 1,0,1
EndSplineSet
EndChar

StartChar: two.propold
Encoding: 160 -1 159
Width: 575
GlyphClass: 2
Flags: HW
LayerCount: 2
Fore
SplineSet
143 73 m 1,0,-1
 500 73 l 1,1,-1
 500 0 l 1,2,-1
 64 0 l 1,3,-1
 64 84 l 2,4,5
 64 164 64 164 101 205.5 c 128,-1,6
 138 247 138 247 214 264 c 1,7,-1
 317 289 l 2,8,9
 370 301 370 301 395.5 325 c 128,-1,10
 421 349 421 349 421 388 c 128,-1,11
 421 427 421 427 389 454 c 128,-1,12
 357 481 357 481 299 481 c 128,-1,13
 241 481 241 481 204.5 458 c 128,-1,14
 168 435 168 435 162 388 c 1,15,-1
 75 388 l 1,16,17
 80 466 80 466 138 508.5 c 128,-1,18
 196 551 196 551 290.5 551 c 128,-1,19
 385 551 385 551 443 502.5 c 128,-1,20
 501 454 501 454 501 388 c 128,-1,21
 501 322 501 322 464 285.5 c 128,-1,22
 427 249 427 249 351 231 c 2,23,-1
 240 204 l 1,24,25
 143 182 143 182 143 105 c 2,26,-1
 143 73 l 1,0,-1
EndSplineSet
EndChar

StartChar: three.propold
Encoding: 161 -1 160
Width: 562
GlyphClass: 2
Flags: HW
LayerCount: 2
Fore
SplineSet
260 483 m 0,0,1
 150 483 150 483 129 390 c 1,2,-1
 46 390 l 1,3,4
 68 551 68 551 259 551 c 0,5,6
 352 551 352 551 410 504.5 c 128,-1,7
 468 458 468 458 468 384 c 0,8,9
 468 333 468 333 439.5 302 c 128,-1,10
 411 271 411 271 360 252 c 1,11,12
 421 232 421 232 457 184.5 c 128,-1,13
 493 137 493 137 493 74 c 0,14,15
 493 -8 493 -8 428.5 -61 c 128,-1,16
 364 -114 364 -114 262 -114 c 128,-1,17
 160 -114 160 -114 94 -62 c 128,-1,18
 28 -10 28 -10 28 88 c 1,19,-1
 108 88 l 1,20,21
 110 19 110 19 151.5 -13.5 c 128,-1,22
 193 -46 193 -46 258.5 -46 c 128,-1,23
 324 -46 324 -46 368 -10.5 c 128,-1,24
 412 25 412 25 412 79 c 0,25,26
 412 167 412 167 323 200 c 0,27,28
 293 211 293 211 251 211 c 2,29,-1
 190 211 l 1,30,-1
 190 274 l 1,31,-1
 233 274 l 2,32,33
 305 274 305 274 346.5 300 c 128,-1,34
 388 326 388 326 388 375 c 128,-1,35
 388 424 388 424 354 453.5 c 128,-1,36
 320 483 320 483 260 483 c 0,0,1
EndSplineSet
EndChar

StartChar: four.propold
Encoding: 162 -1 161
Width: 560
GlyphClass: 2
Flags: HW
LayerCount: 2
Fore
SplineSet
427 546 m 1,0,-1
 427 121 l 1,1,-1
 536 121 l 1,2,-1
 536 54 l 1,3,-1
 427 54 l 1,4,-1
 427 -105 l 1,5,-1
 349 -105 l 1,6,-1
 349 54 l 1,7,-1
 24 54 l 1,8,-1
 24 115 l 1,9,-1
 353 546 l 1,10,-1
 427 546 l 1,0,-1
112 115 m 1,11,-1
 351 115 l 1,12,-1
 351 422 l 1,13,-1
 112 115 l 1,11,-1
EndSplineSet
EndChar

StartChar: five.propold
Encoding: 163 -1 162
Width: 569
GlyphClass: 2
Flags: HW
LayerCount: 2
Fore
SplineSet
187 296 m 1,0,1
 233 306 233 306 281 306 c 0,2,3
 386 306 386 306 446 253 c 128,-1,4
 506 200 506 200 506 106 c 128,-1,5
 506 12 506 12 439 -51 c 128,-1,6
 372 -114 372 -114 277 -114 c 128,-1,7
 182 -114 182 -114 123.5 -64 c 128,-1,8
 65 -14 65 -14 65 75 c 1,9,-1
 142 75 l 1,10,11
 142 18 142 18 177 -12 c 128,-1,12
 212 -42 212 -42 275 -42 c 128,-1,13
 338 -42 338 -42 382 0 c 128,-1,14
 426 42 426 42 426 105.5 c 128,-1,15
 426 169 426 169 385.5 205 c 128,-1,16
 345 241 345 241 266 241 c 2,17,-1
 104 241 l 1,18,-1
 132 545 l 1,19,-1
 477 545 l 1,20,-1
 477 474 l 1,21,-1
 205 474 l 1,22,-1
 187 296 l 1,0,1
EndSplineSet
EndChar

StartChar: six.propold
Encoding: 164 -1 163
Width: 573
GlyphClass: 2
Flags: HW
LayerCount: 2
Fore
SplineSet
425 470 m 1,0,1
 408 568 408 568 318 568 c 128,-1,2
 228 568 228 568 179.5 494 c 128,-1,3
 131 420 131 420 131 292 c 0,4,5
 131 239 131 239 136 204 c 1,6,7
 142 296 142 296 192.5 337.5 c 128,-1,8
 243 379 243 379 322 379 c 128,-1,9
 401 379 401 379 458 323.5 c 128,-1,10
 515 268 515 268 515 181.5 c 128,-1,11
 515 95 515 95 456 41.5 c 128,-1,12
 397 -12 397 -12 301 -12 c 0,13,14
 189 -12 189 -12 120 78 c 128,-1,15
 51 168 51 168 51 314.5 c 128,-1,16
 51 461 51 461 121 550.5 c 128,-1,17
 191 640 191 640 312 640 c 0,18,19
 396 640 396 640 449 593 c 128,-1,20
 502 546 502 546 510 470 c 1,21,-1
 425 470 l 1,0,1
207.5 273.5 m 128,-1,23
 170 238 170 238 170 183 c 128,-1,24
 170 128 170 128 207 94.5 c 128,-1,25
 244 61 244 61 301 61 c 128,-1,26
 358 61 358 61 395.5 94 c 128,-1,27
 433 127 433 127 433 185 c 256,28,29
 433 243 433 243 395.5 276 c 128,-1,30
 358 309 358 309 301.5 309 c 128,-1,22
 245 309 245 309 207.5 273.5 c 128,-1,23
EndSplineSet
EndChar

StartChar: seven.propold
Encoding: 165 -1 164
Width: 470
GlyphClass: 2
Flags: HW
LayerCount: 2
Fore
SplineSet
452 551 m 1,0,-1
 452 484 l 1,1,-1
 152 -98 l 1,2,-1
 55 -98 l 1,3,-1
 369 481 l 1,4,-1
 24 481 l 1,5,-1
 24 551 l 1,6,-1
 452 551 l 1,0,-1
EndSplineSet
EndChar

StartChar: eight.propold
Encoding: 166 -1 165
Width: 615
GlyphClass: 2
Flags: HW
LayerCount: 2
Fore
SplineSet
201 318 m 1,0,1
 76 375 76 375 76 473 c 0,2,3
 76 548 76 548 138 594 c 128,-1,4
 200 640 200 640 302.5 640 c 128,-1,5
 405 640 405 640 471 591 c 128,-1,6
 537 542 537 542 537 465 c 0,7,8
 537 413 537 413 502.5 372 c 128,-1,9
 468 331 468 331 401 321 c 1,10,-1
 418 315 l 1,11,12
 487 289 487 289 524 253.5 c 128,-1,13
 561 218 561 218 561 157 c 0,14,15
 561 81 561 81 493.5 35 c 128,-1,16
 426 -11 426 -11 311.5 -11 c 128,-1,17
 197 -11 197 -11 126 40 c 128,-1,18
 55 91 55 91 55 168 c 0,19,20
 55 230 55 230 95.5 269 c 128,-1,21
 136 308 136 308 201 318 c 1,0,1
276 289 m 1,22,23
 213 282 213 282 175 249.5 c 128,-1,24
 137 217 137 217 137 169 c 128,-1,25
 137 121 137 121 185 91 c 128,-1,26
 233 61 233 61 310.5 61 c 128,-1,27
 388 61 388 61 433.5 87 c 128,-1,28
 479 113 479 113 479 150 c 128,-1,29
 479 187 479 187 455 209.5 c 128,-1,30
 431 232 431 232 389 247 c 2,31,-1
 276 289 l 1,22,23
159 463 m 0,32,33
 159 436 159 436 181 416.5 c 128,-1,34
 203 397 203 397 244 381 c 2,35,-1
 317 353 l 1,36,37
 377 355 377 355 416 384.5 c 128,-1,38
 455 414 455 414 455 461.5 c 128,-1,39
 455 509 455 509 414 538.5 c 128,-1,40
 373 568 373 568 308 568 c 128,-1,41
 243 568 243 568 201 539.5 c 128,-1,42
 159 511 159 511 159 463 c 0,32,33
EndSplineSet
EndChar

StartChar: nine.propold
Encoding: 167 -1 166
Width: 580
GlyphClass: 2
Flags: HW
LayerCount: 2
Fore
SplineSet
286 551 m 0,0,1
 339 551 339 551 385.5 525.5 c 128,-1,2
 432 500 432 500 464 456 c 0,3,4
 530 367 530 367 530 217 c 128,-1,5
 530 67 530 67 465 -23.5 c 128,-1,6
 400 -114 400 -114 281 -114 c 0,7,8
 188 -114 188 -114 129 -58.5 c 128,-1,9
 70 -3 70 -3 70 83 c 1,10,-1
 153 83 l 1,11,12
 155 26 155 26 187.5 -8 c 128,-1,13
 220 -42 220 -42 272.5 -42 c 128,-1,14
 325 -42 325 -42 356 -22 c 0,15,16
 449 35 449 35 449 238 c 0,17,18
 449 283 449 283 444 318 c 1,19,20
 436 241 436 241 389 198.5 c 128,-1,21
 342 156 342 156 263.5 156 c 128,-1,22
 185 156 185 156 125.5 212 c 128,-1,23
 66 268 66 268 66 354 c 0,24,25
 66 441 66 441 125 496 c 128,-1,26
 184 551 184 551 286 551 c 0,0,1
279 481 m 256,27,28
 219 481 219 481 183.5 446.5 c 128,-1,29
 148 412 148 412 148 353.5 c 128,-1,30
 148 295 148 295 184 260.5 c 128,-1,31
 220 226 220 226 278.5 226 c 128,-1,32
 337 226 337 226 374 263 c 128,-1,33
 411 300 411 300 411 356 c 128,-1,34
 411 412 411 412 375 446.5 c 128,-1,35
 339 481 339 481 279 481 c 256,27,28
EndSplineSet
EndChar

StartChar: Patt0
Encoding: 168 -1 167
Width: 1000
VWidth: 0
Flags: H
LayerCount: 2
Fore
SplineSet
227.75 1072.5625 m 4,0,1
 316.357421875 1070.75195312 316.357421875 1070.75195312 379.5 1011.15625 c 5,2,-1
 345 975 l 5,3,4
 291.7421875 1025.79003906 291.7421875 1025.79003906 216.627929688 1022.32324219 c 4,5,6
 206.368164062 1021.73144531 206.368164062 1021.73144531 197.375 1020.28125 c 4,7,8
 164.205078125 1014.40136719 164.205078125 1014.40136719 105.1875 986.71875 c 4,9,10
 37.486328125 955.234375 37.486328125 955.234375 1.0625 948 c 4,11,12
 -95.6474609375 929.26171875 -95.6474609375 929.26171875 -177.000976562 986.271484375 c 4,13,14
 -188.528320312 994.53125 -188.528320312 994.53125 -198.125 1003.03125 c 5,15,-1
 -164.75 1040.25 l 5,16,17
 -107.212890625 988.698242188 -107.212890625 988.698242188 -28.5654296875 994.407226562 c 4,18,19
 -17.8671875 995.30078125 -17.8671875 995.30078125 -8.46875 997.0625 c 4,20,21
 23.1787109375 1003.47851562 23.1787109375 1003.47851562 83.9375 1032 c 4,22,23
 150.03515625 1063.03613281 150.03515625 1063.03613281 189.09375 1069.59375 c 4,24,25
 208.676757812 1072.703125 208.676757812 1072.703125 227.75 1072.5625 c 4,0,1
EndSplineSet
EndChar

StartChar: Patt1
Encoding: 169 -1 168
Width: 1000
VWidth: 0
Flags: HW
LayerCount: 2
Fore
SplineSet
739.411132812 860.797851562 m 4,0,1
 767.561523438 860.46875 767.561523438 860.46875 792.879882812 851.516601562 c 4,2,3
 826.930664062 839.219726562 826.930664062 839.219726562 882.109375 793.14453125 c 4,4,5
 890.170898438 786.452148438 890.170898438 786.452148438 894.942382812 782.641601562 c 4,6,7
 919.903320312 763.17578125 919.903320312 763.17578125 938.254882812 754.704101562 c 4,8,9
 961.836914062 744.5859375 961.836914062 744.5859375 981.754882812 746.204101562 c 4,10,11
 998.561523438 748.288085938 998.561523438 748.288085938 1016.72363281 758.110351562 c 4,12,13
 1030.73046875 766.05859375 1030.73046875 766.05859375 1052.72363281 782.797851562 c 4,14,15
 1080.45605469 803.762695312 1080.45605469 803.762695312 1093.69238281 811.766601562 c 4,16,17
 1121.28125 827.755859375 1121.28125 827.755859375 1146.25488281 832.141601562 c 4,18,19
 1179.98144531 837.276367188 1179.98144531 837.276367188 1216.97363281 824.985351562 c 4,20,21
 1241.8515625 816.357421875 1241.8515625 816.357421875 1275.06738281 796.954101562 c 4,22,23
 1315.24023438 773.53515625 1315.24023438 773.53515625 1325.12988281 768.735351562 c 4,24,25
 1351.88671875 756.286132812 1351.88671875 756.286132812 1373.03613281 754.391601562 c 4,26,27
 1412.49316406 752.067382812 1412.49316406 752.067382812 1441.59863281 777.829101562 c 5,28,29
 1470.27832031 804.973632812 1470.27832031 804.973632812 1471.47363281 843.829101562 c 5,30,-1
 1521.47363281 842.954101562 l 5,31,32
 1519.58789062 781.802734375 1519.58789062 781.802734375 1475.22363281 740.829101562 c 5,33,34
 1429.41503906 700.286132812 1429.41503906 700.286132812 1369.12988281 704.547851562 c 4,35,36
 1337.79785156 707.370117188 1337.79785156 707.370117188 1303.50488281 723.672851562 c 4,37,38
 1289.59179688 730.4453125 1289.59179688 730.4453125 1249.81738281 753.797851562 c 4,39,40
 1219.81152344 771.125 1219.81152344 771.125 1200.97363281 777.641601562 c 4,41,42
 1175.08789062 785.92578125 1175.08789062 785.92578125 1154.44238281 782.797851562 c 4,43,44
 1137.640625 779.581054688 1137.640625 779.581054688 1119.31738281 768.829101562 c 4,45,46
 1106.86816406 761.224609375 1106.86816406 761.224609375 1083.03613281 743.047851562 c 4,47,48
 1056.66210938 723.169921875 1056.66210938 723.169921875 1040.87988281 714.329101562 c 4,49,50
 1012.625 699.234375 1012.625 699.234375 986.598632812 696.454101562 c 4,51,52
 952.548828125 693.637695312 952.548828125 693.637695312 917.692382812 709.110351562 c 4,53,54
 892.627929688 720.709960938 892.627929688 720.709960938 863.848632812 743.454101562 c 4,55,56
 807.157226562 788.439453125 807.157226562 788.439453125 796.708984375 794.5703125 c 4,57,58
 785.432617188 800.962890625 785.432617188 800.962890625 775.911132812 804.516601562 c 4,59,60
 725.3984375 821.892578125 725.3984375 821.892578125 680.629882812 793.641601562 c 4,61,62
 638.454101562 766.393554688 638.454101562 766.393554688 632.081054688 716 c 4,63,64
 631.762695312 713.129882812 631.762695312 713.129882812 631.598632812 711.266601562 c 5,65,-1
 581.723632812 715.110351562 l 5,66,67
 587.336914062 787.818359375 587.336914062 787.818359375 646.487304688 830.828125 c 4,68,69
 650.458984375 833.639648438 650.458984375 833.639648438 653.504882812 835.641601562 c 4,70,71
 692.967773438 860.4609375 692.967773438 860.4609375 739.411132812 860.797851562 c 4,0,1
EndSplineSet
EndChar

StartChar: Patt2
Encoding: 170 -1 169
Width: 1000
VWidth: 0
Flags: HW
LayerCount: 2
Fore
SplineSet
46.375 442.305664062 m 4,0,1
 65.4482421875 442.446289062 65.4482421875 442.446289062 85.03125 439.336914062 c 4,2,3
 124.08984375 432.779296875 124.08984375 432.779296875 190.1875 401.743164062 c 4,4,5
 250.946289062 373.221679688 250.946289062 373.221679688 282.59375 366.805664062 c 4,6,7
 291.9921875 365.043945312 291.9921875 365.043945312 302.690429688 364.150390625 c 4,8,9
 381.337890625 358.44140625 381.337890625 358.44140625 438.875 409.993164062 c 5,10,-1
 472.25 372.774414062 l 5,11,12
 462.653320312 364.274414062 462.653320312 364.274414062 451.125976562 356.014648438 c 4,13,14
 369.772460938 299.004882812 369.772460938 299.004882812 273.0625 317.743164062 c 4,15,16
 236.638671875 324.977539062 236.638671875 324.977539062 168.9375 356.461914062 c 4,17,18
 109.919921875 384.14453125 109.919921875 384.14453125 76.75 390.024414062 c 4,19,20
 67.7568359375 391.474609375 67.7568359375 391.474609375 57.4970703125 392.06640625 c 4,21,22
 -17.6171875 395.533203125 -17.6171875 395.533203125 -70.875 344.743164062 c 5,23,-1
 -105.375 380.899414062 l 5,24,25
 -42.232421875 440.495117188 -42.232421875 440.495117188 46.375 442.305664062 c 4,0,1
EndSplineSet
EndChar
